<?xml version="1.0" standalone="no"?>
<!DOCTYPE svg PUBLIC "-//W3C//DTD SVG 1.1//EN" "http://www.w3.org/Graphics/SVG/1.1/DTD/svg11.dtd" >
<svg xmlns="http://www.w3.org/2000/svg" xmlns:xlink="http://www.w3.org/1999/xlink" version="1.1">
<metadata>
Created by FontForge 20190801 at Sun Aug 16 16:31:25 2015
 By Jimmy Wärting
Marcelo Reis Melo
</metadata>
<defs>
<font id="Bavro-Regular" horiz-adv-x="567" >
  <font-face 
    font-family="Bavro"
    font-weight="400"
    font-stretch="normal"
    units-per-em="1000"
    panose-1="0 0 5 0 0 0 0 0 0 0"
    ascent="800"
    descent="-200"
    x-height="733"
    cap-height="736.5"
    bbox="-46 -184.471 1290 919.267"
    underline-thickness="50"
    underline-position="-100"
    unicode-range="U+0020-2265"
  />
<missing-glyph horiz-adv-x="500" 
d="M0 0v700h500v-700h-500zM250 395l170 255h-340zM280 350l170 -255v510zM80 50h340l-170 255zM50 605v-510l170 255z" />
    <glyph glyph-name=".notdef" horiz-adv-x="500" 
d="M0 0v700h500v-700h-500zM250 395l170 255h-340zM280 350l170 -255v510zM80 50h340l-170 255zM50 605v-510l170 255z" />
    <glyph glyph-name=".null" horiz-adv-x="0" 
 />
    <glyph glyph-name="nonmarkingreturn" horiz-adv-x="333" 
 />
    <glyph glyph-name="space" unicode=" " horiz-adv-x="500" 
 />
    <glyph glyph-name="exclam" unicode="!" horiz-adv-x="125" 
d="M85 720v-614q0 -14 -11.5 -19.5t-22.5 0t-11 19.5v614q0 14 11 19.5t22.5 -0.5t11.5 -19zM62 50q17 0 23.5 -14t0 -27.5t-23.5 -13.5t-23.5 13.5t0 27.5t23.5 14z" />
    <glyph glyph-name="quotedbl" unicode="&#x22;" horiz-adv-x="218" 
d="M85 724q0 -14 -11.5 -19.5t-22.5 0t-11 19.5v114q0 14 11 19.5t22.5 0t11.5 -19.5v-114zM178 724q0 -14 -11 -19.5t-22.5 0t-11.5 19.5v114q0 14 11 19.5t22.5 0t11.5 -19.5v-114z" />
    <glyph glyph-name="numbersign" unicode="#" horiz-adv-x="631" 
d="M480 448h90q21 0 21 -22.5t-21 -22.5h-101q-9 -35 -34 -139h135q21 0 21 -22.5t-21 -22.5h-146q-7 -29 -24 -96.5t-26 -103.5q-3 -14 -15.5 -16.5t-21.5 6t-6 22.5q6 25 22 89t24 99h-177q-7 -29 -24 -96.5t-26 -103.5q-3 -14 -15.5 -16.5t-21.5 6t-6 22.5q16 62 46 188
h-91q-14 0 -19.5 11t0 22.5t19.5 11.5h102q6 23 17.5 69.5t17.5 69.5h-137q-14 0 -19.5 11.5t0 22.5t19.5 11h148q8 33 24 98.5t24 97.5q3 13 15.5 15.5t21.5 -6t6 -21.5q-7 -31 -22 -92.5t-23 -91.5h178q8 33 24 98.5t24 97.5q3 13 15.5 15.5t21.5 -6t6 -21.5
q-7 -31 -22 -92.5t-23 -91.5zM388 264q6 23 17.5 69.5t17.5 69.5h-178q-5 -23 -16.5 -69.5t-17.5 -69.5h177z" />
    <glyph glyph-name="dollar" unicode="$" horiz-adv-x="580" 
d="M319 359q34 -4 57.5 -8.5t54 -15t50.5 -24.5t36 -37.5t21 -54.5q14 -106 -53 -165q-53 -48 -165 -54h-1v-65q0 -14 -11.5 -19.5t-22.5 0t-11 19.5v66q-96 9 -163.5 70t-70.5 157q0 14 11 19.5t22.5 0t11.5 -19.5q2 -74 56.5 -125.5t129.5 -57.5h3v275q-6 0 -20 2
q-108 16 -152 62q-46 48 -53 122q-6 90 56.5 158t152.5 79q2 0 8 0.5t8 0.5v78q0 14 11 19.5t22.5 -0.5t11.5 -19v-79q90 -10 154 -73t67 -154q0 -14 -11 -19.5t-22.5 0t-11.5 19.5q-2 75 -53 122.5t-123 57.5v-337zM115 440q15 -27 44 -43.5t52.5 -22t62.5 -10.5v333
q-60 -3 -107.5 -36.5t-65.5 -93.5q-19 -68 14 -127zM479 118q26 45 13.5 96.5t-59.5 72.5q-41 20 -114 27v-270q123 4 160 74z" />
    <glyph glyph-name="percent" unicode="%" horiz-adv-x="593" 
d="M47 578v4q1 40 21 67.5t59 32.5q42 6 75 -19.5t35 -67.5q2 -39 -18.5 -67.5t-58.5 -35.5q-42 -8 -75.5 16t-37.5 66v4zM119 634q-27 -13 -27 -56q1 -27 28 -38.5t49 2.5q27 15 23 53q-3 26 -26 38t-47 1zM439 196q42 6 75 -19.5t35 -67.5q2 -39 -18.5 -68t-58.5 -36
q-41 -8 -75 16.5t-38 65.5v5v4q1 40 21 67t59 33zM481 56q27 15 23 53q-3 26 -26 37.5t-47 0.5q-27 -12 -27 -55q1 -28 28 -39t49 3zM44 32q11 15 31 42.5t27 37.5q67 93 201.5 279t201.5 279q13 18 35 7q20 -10 11 -26l-2 -2q-38 -54 -57 -80q-135 -186 -403 -558
q-12 -17 -34 -7q-21 8 -13 24z" />
    <glyph glyph-name="ampersand" unicode="&#x26;" horiz-adv-x="810" 
d="M763 -12q10 -10 5.5 -23t-16 -16t-22.5 6l-91 91q-54 -107 -138 -152q-87 -47 -190 -34.5t-177 79.5q-60 55 -83.5 138t6.5 160q50 115 204 185q-124 129 -108 241q13 95 84 143.5t166 33.5q87 -14 136 -81.5t30 -154.5q-18 -88 -96 -145q-36 -27 -123 -53
q45 -47 137 -139q91 -91 136 -137q17 47 25 104q3 20 23 17q20 -4 23 -22q1 -4 0 -8q-9 -62 -34 -128q17 -18 51.5 -53t51.5 -52zM201 601q3 -12 7.5 -24.5t9 -21.5t13.5 -21.5t13.5 -19t16.5 -19.5t16 -17l18 -18l17 -17q2 1 7 2.5t7 2.5q34 10 53 17.5t44.5 20t44.5 30.5
t33 42q29 44 25 102.5t-44 94.5q-34 31 -89.5 40.5t-98.5 -8.5q-52 -21 -78 -75.5t-15 -110.5zM432 -84q112 36 172 166q-35 35 -104.5 105t-104.5 105q-16 16 -50.5 48.5t-47.5 45.5q-107 -46 -167.5 -124t-30.5 -180q30 -101 130.5 -150t202.5 -16z" />
    <glyph glyph-name="quotesingle" unicode="'" horiz-adv-x="125" 
d="M85 724q0 -14 -11.5 -19.5t-22.5 0t-11 19.5v114q0 14 11 19.5t22.5 0t11.5 -19.5v-114z" />
    <glyph glyph-name="parenleft" unicode="(" horiz-adv-x="257" 
d="M206 -38q11 -8 11 -19t-10.5 -18.5t-22.5 -0.5q-68 37 -105.5 100t-38.5 141v196v62v72.5v61.5q1 77 37.5 140t103.5 100q12 7 23 0t11 -18.5t-11 -19.5q-119 -68 -119 -215v-183v-185q0 -146 121 -214z" />
    <glyph glyph-name="parenright" unicode=")" horiz-adv-x="258" 
d="M218 554v-196v-196q-1 -76 -38 -139.5t-104 -101.5q-12 -7 -22.5 0.5t-10.5 19t11 19.5q119 68 119 215v183v184q-2 149 -122 214q-11 8 -10.5 19.5t11 19t22.5 0.5q67 -37 105 -100.5t39 -140.5z" />
    <glyph glyph-name="asterisk" unicode="*" horiz-adv-x="237" 
d="M175 795q14 0 19.5 -11.5t0 -22.5t-19.5 -11h-2l2 -2q15 -15 -1 -31t-31 -1l-2 2v-2q0 -14 -11 -19.5t-22.5 0t-11.5 19.5v2l-2 -2q-15 -15 -31 1t-1 31l2 2h-2q-14 0 -19.5 11t0 22.5t19.5 11.5h2l-2 2q-15 15 1 31t31 1l2 -2v2q0 14 11 19.5t22.5 0t11.5 -19.5v-2l2 2
q15 15 31 -1t1 -31l-2 -2h2z" />
    <glyph glyph-name="plus" unicode="+" horiz-adv-x="443" 
d="M199 277h-137q-14 0 -19.5 11.5t0 22.5t19.5 11h137v137q0 14 11 19.5t22.5 0t11.5 -19.5v-137h137q14 0 19.5 -11t0 -22.5t-19.5 -11.5h-137v-137q0 -14 -11 -19.5t-22.5 0t-11.5 19.5v137z" />
    <glyph glyph-name="comma" unicode="," horiz-adv-x="138" 
d="M-9 -76q38 1 49.5 27t12.5 72q0 14 11.5 19.5t22.5 0t11 -19.5q-2 -70 -20 -99q-24 -43 -87 -45q-14 0 -19.5 11t0 22.5t19.5 11.5z" />
    <glyph glyph-name="hyphen" unicode="-" horiz-adv-x="443" 
d="M62 362q-14 0 -19.5 11t0 22.5t19.5 11.5h319q14 0 19.5 -11.5t0 -22.5t-19.5 -11h-319z" />
    <glyph glyph-name="period" unicode="." horiz-adv-x="244" 
d="M122 -8q-18 0 -26 15t0 30.5t26 15.5t26 -15t0 -30.5t-26 -15.5z" />
    <glyph glyph-name="slash" unicode="/" horiz-adv-x="389" 
d="M85 -21q-5 -13 -18 -15t-22 6t-4 21q22 60 33 91q38 106 115 317.5t116 317.5q5 13 17.5 15.5t21.5 -6t4 -21.5l-33 -90q-38 -106 -115 -318t-115 -318z" />
    <glyph glyph-name="zero" unicode="0" horiz-adv-x="715" 
d="M668 466q25 -134 -25.5 -261t-169.5 -181q-102 -42 -200 -9.5t-161 122.5q-66 96 -71 220t52 226q55 99 157 144t205 6q154 -58 211 -259v-2l1 -2l1 -2v-2zM494 87q84 58 117.5 161.5t12.5 209.5q-25 90 -76.5 155.5t-133.5 85.5q-95 24 -178.5 -30t-122.5 -148
q-39 -92 -24.5 -200t80.5 -184q63 -73 153.5 -88t171.5 38z" />
    <glyph glyph-name="one" unicode="1" horiz-adv-x="246" 
d="M206 22q0 -14 -11 -19.5t-22.5 0t-11.5 19.5v639l-78 -105q-8 -11 -21.5 -9.5t-19 10.5t1.5 21l120 162q10 13 26 9.5t16 -21.5v-706z" />
    <glyph glyph-name="two" unicode="2" horiz-adv-x="579" 
d="M439 303q-117 -135 -298 -258h377q14 0 19.5 -11t-0.5 -22.5t-19 -11.5h-451q-17 0 -21.5 16.5t9.5 25.5q47 30 114 79q115 86 192 164q108 108 129 188q20 77 -29 139.5t-128 75.5q-92 16 -168.5 -36t-79.5 -144q0 -14 -11.5 -19.5t-22.5 0t-11 19.5q3 103 83.5 169
t185.5 59q89 -5 154.5 -60t74.5 -141q13 -102 -99 -232z" />
    <glyph glyph-name="three" unicode="3" horiz-adv-x="558" 
d="M354 414q78 -22 123 -80q43 -56 41 -126.5t-48 -125.5q-38 -44 -94 -65.5t-112.5 -15.5t-106.5 30t-82.5 72.5t-34.5 109.5q0 14 11 19.5t22.5 0t11.5 -19.5q2 -62 43.5 -105.5t97 -56.5t115.5 2.5t97 60.5q40 49 35 110t-51 104q-55 53 -176 53q-14 0 -19.5 11.5t0 22.5
t19.5 11q49 2 89.5 25.5t57.5 66.5q16 43 2.5 83.5t-50.5 66.5q-17 13 -36.5 20.5t-44.5 10t-41.5 3t-46.5 -0.5t-42 -1q-14 0 -19.5 11t0 22.5t19.5 11.5h34.5h37.5t34 -1t36.5 -3.5t32 -7t33.5 -11.5t28 -16.5t28 -22.5t23 -30q40 -73 19 -136.5t-86 -102.5z" />
    <glyph glyph-name="four" unicode="4" horiz-adv-x="507" 
d="M467 22q0 -14 -11.5 -19.5t-22.5 0t-11 19.5v215h-359q-11 0 -18.5 9.5t-3.5 19.5q114 308 171 463q4 13 17 15t22 -6t4 -21q-26 -73 -79.5 -218t-80.5 -217h327v446q0 14 11 19.5t22.5 0t11.5 -19.5v-706z" />
    <glyph glyph-name="five" unicode="5" horiz-adv-x="559" 
d="M276 447q67 0 125.5 -31t90.5 -88q34 -62 24.5 -133t-58.5 -122q-51 -54 -123.5 -67.5t-136.5 8.5t-110 78t-48 131q0 14 11 19.5t22.5 0t11.5 -19.5q3 -87 72.5 -138.5t155.5 -38.5q85 13 133.5 86t16.5 153q-14 36 -41 61t-54.5 37t-70.5 17t-71 5t-76.5 -1.5
t-67.5 -1.5q-9 0 -16 7t-7 16v299q0 9 7 15.5t16 6.5q246 2 368 4q14 0 19.5 -11t0 -22.5t-19.5 -11.5q-230 -2 -346 -3v-255h54.5h64h53.5z" />
    <glyph glyph-name="six" unicode="6" horiz-adv-x="557" 
d="M226 460q66 13 129 -10.5t106 -75.5q51 -61 56 -135t-36 -136.5t-117 -88.5q-117 -40 -218 29t-106 192q-2 36 3 72q0 5 1 9q17 140 105.5 259t217.5 177q12 6 23 -2t11 -19t-11 -18q-63 -27 -138 -93q-101 -93 -142 -213q48 38 116 53zM281 46q46 0 85.5 18t64 49
t36 68.5t2.5 79.5t-38 79q-36 46 -89.5 67t-110.5 8q-49 -11 -90 -39.5t-54 -71.5q0 -2 -1 -2q-11 -98 23 -159q26 -46 72 -71.5t100 -25.5z" />
    <glyph glyph-name="seven" unicode="7" horiz-adv-x="542" 
d="M480 750q13 0 19 -11t0 -22q-1 -2 -46 -89q-53 -103 -160 -308.5t-161 -308.5q-8 -11 -19 -11t-18.5 11t-1.5 23q8 15 23.5 44.5t22.5 44.5q202 388 304 582h-381q-14 0 -19.5 11.5t0 22.5t19.5 11h418z" />
    <glyph glyph-name="eight" unicode="8" horiz-adv-x="607" 
d="M418 425q68 -28 110 -84q50 -76 36 -147.5t-74.5 -125t-139.5 -65.5q-58 -9 -118.5 7.5t-107.5 50.5t-70 90t-8 119q13 56 54 99.5t97 59.5q-83 47 -92 127q-7 63 28 109.5t89.5 64t116.5 11.5t106 -38q45 -32 61 -84.5t-3 -104.5q-21 -60 -85 -89zM148 573
q1 -108 167 -128q8 1 22 3q104 13 126 87q12 41 -3 78.5t-52 60.5q-32 19 -77 23t-85.5 -6.5t-69 -41.5t-28.5 -76zM456 95q60 48 64.5 119.5t-51.5 124.5q-51 49 -124 59q-22 2 -33 2q-43 -4 -61 -6t-49.5 -12t-53.5 -28q-68 -58 -60.5 -141t81.5 -130q63 -42 145 -39
t142 51z" />
    <glyph glyph-name="nine" unicode="9" horiz-adv-x="557" 
d="M517 519q2 -36 -3 -71q1 -3 -1 -9q-17 -140 -105 -259.5t-218 -177.5q-12 -6 -23 2t-11 19t12 18q67 31 137 94q101 91 142 212q-50 -39 -116 -52q-66 -14 -129 9.5t-106 75.5q-51 61 -56 135.5t36 136.5t117 88q81 24 152 4t120 -82t52 -143zM326 339q49 12 90 40.5
t54 71.5q0 1 1 2q11 98 -23 158q-25 46 -71 72t-100 26q-58 0 -104 -28.5t-68.5 -71t-18.5 -96t40 -99.5q37 -47 90 -67.5t110 -7.5z" />
    <glyph glyph-name="colon" unicode=":" horiz-adv-x="123" 
d="M61 448q-18 0 -25.5 15t0.5 30t26 15t25.5 -15t-0.5 -30t-26 -15zM60 224q-18 0 -25.5 15t0.5 30t26 15t25.5 -15t-0.5 -30t-26 -15z" />
    <glyph glyph-name="semicolon" unicode=";" horiz-adv-x="138" 
d="M-9 -76q38 1 49.5 27t12.5 72q0 14 11.5 19.5t22.5 0t11 -19.5q-2 -70 -20 -99q-24 -43 -87 -45q-14 0 -19.5 11t0 22.5t19.5 11.5zM75 118q-18 0 -26 15t0 30.5t26 15.5t26 -15t0 -30.5t-26 -15.5z" />
    <glyph glyph-name="equal" unicode="=" horiz-adv-x="443" 
d="M62 356q-14 0 -19.5 11t0 22.5t19.5 11.5h319q14 0 19.5 -11.5t0 -22.5t-19.5 -11h-319zM62 181q-14 0 -19.5 11t0 22.5t19.5 11.5h319q14 0 19.5 -11t0 -22.5t-19.5 -11.5h-319z" />
    <glyph glyph-name="greater" unicode="&#x3e;" horiz-adv-x="600" 
d="M470 357q12 -6 12 -20.5t-12 -21.5q-126 -64 -250 -128q-13 -7 -24.5 1t-11.5 20t12 20l210 108q-140 74 -210 110q-12 9 -12 21t11.5 20t24.5 1q242 -127 250 -131z" />
    <glyph glyph-name="question" unicode="?" horiz-adv-x="570" 
d="M366 308q-66 -55 -67 -119q0 -15 5 -82q0 -14 -11 -19.5t-22.5 0.5t-11.5 19q-2 41 -2 75t12 68.5t39 64.5q20 22 58.5 46.5t68.5 49.5t42 60q24 66 -14 129.5t-106 86.5q-46 17 -93.5 9t-86.5 -30t-65 -63t-27 -90q0 -14 -11.5 -19.5t-22.5 0t-11 19.5q2 84 59 146.5
t141 77.5q72 13 141 -12t110 -84q64 -91 27 -189q-23 -60 -75 -95q-10 -7 -37 -22.5t-40 -26.5zM286 50q16 0 22.5 -14t0 -27.5t-22.5 -13.5q-17 0 -23.5 13.5t0 27.5t23.5 14z" />
    <glyph glyph-name="at" unicode="@" horiz-adv-x="853" 
d="M484 491q-79 17 -126.5 -40.5t-47.5 -139.5q0 -52 21 -65q20 -12 46.5 -1t43.5 31q57 62 86 179q2 8 7.5 12.5t12 4t12 -3.5t9 -10t2.5 -15q-6 -41 -8 -69.5t9.5 -66t42.5 -50.5q29 -13 65 -9.5t59 24.5q24 22 36.5 58.5t12 71.5t-5.5 69q-23 118 -126.5 187.5
t-226.5 60.5q-125 -8 -217 -97.5t-105 -213.5q-13 -123 56.5 -227.5t188.5 -141.5q57 -20 124.5 -15t128 26t110.5 66t72 104q5 13 17.5 15t21.5 -6t4 -21q-30 -81 -99 -137t-151.5 -77t-171.5 -10.5t-160 53.5q-128 79 -171 226t24 283q44 90 128 147.5t179.5 68
t193.5 -23.5q129 -50 195 -177.5t16 -255.5q-22 -54 -67.5 -81t-103.5 -19q-97 13 -116 111q-38 -76 -93 -104q-49 -26 -92 -7.5t-53 72.5q-9 56 10 120.5t59 100.5q30 27 75.5 36.5t84.5 -0.5q13 -3 15.5 -15t-6 -21.5t-21.5 -6.5z" />
    <glyph glyph-name="A" unicode="A" horiz-adv-x="591" 
d="M300 727q26 -72 114 -319t136 -382q5 -13 -4 -21t-21.5 -5.5t-17.5 14.5q-9 24 -31 86.5t-34 95.5h-331q-52 -143 -67 -181q-4 -13 -16.5 -15t-21.5 6t-5 21q55 148 256 700q6 16 22 16t21 -16zM127 241h299q-98 276 -148 415q-28 -78 -80 -219.5t-71 -195.5z" />
    <glyph glyph-name="B" unicode="B" horiz-adv-x="573" 
d="M49 9q-6 6 -6 15q0 116 -1.5 347.5t-1.5 347.5q0 9 6.5 15.5t15.5 6.5q26 0 76 0.5t75 0.5q58 0 98 -7t75 -32q49 -35 67.5 -90t-2.5 -112q-24 -58 -78 -89q82 -23 125 -87q43 -63 33 -137t-66 -125q-43 -38 -94 -50t-123 -12q-31 0 -91.5 0.5t-90.5 0.5q-10 0 -15 6
q-1 0 -1 1h-1zM262 697q0 1 -88 1l-89 -1q0 -109 1.5 -325.5t1.5 -325.5h116q11 0 38 -0.5t42 -0.5t37 2.5t40 7.5q76 23 111 92t-3 141q-52 93 -207 93q-21 0 -21 22t21 23q63 2 110.5 41t44.5 100q-2 58 -48.5 93t-106.5 37z" />
    <glyph glyph-name="C" unicode="C" horiz-adv-x="673" 
d="M305 6q-90 17 -154.5 81.5t-90 149t-18.5 178t49 167.5q41 74 112 119.5t153 46.5q183 2 272 -132q8 -11 1.5 -21.5t-18.5 -10.5t-21 10q-50 73 -141 99.5t-174 -5.5q-89 -32 -139.5 -118.5t-52.5 -186.5q-2 -99 45 -188t132 -128q84 -40 181 -15.5t149 101.5q8 11 21 10
t18.5 -10.5t-0.5 -22.5q-53 -79 -140 -110.5t-184 -13.5z" />
    <glyph glyph-name="D" unicode="D" horiz-adv-x="575" 
d="M66 1q-9 0 -16 6.5t-7 15.5q0 116 -1.5 347.5t-1.5 347.5q0 9 6.5 15.5t15.5 6.5q23 0 65.5 1.5t72.5 2t70.5 -1t71.5 -8.5t63.5 -19.5t58 -35.5t43.5 -54q10 -18 16.5 -37.5t8.5 -44t2.5 -39.5t0 -45.5t-0.5 -40.5v-206q-4 -94 -74.5 -152.5t-166.5 -59.5q-77 -1 -227 1
zM255 695q-114 0 -170 1q0 -108 1.5 -325t1.5 -326q12 0 46 -1.5t51.5 -2t51.5 0t54 3t49.5 7.5t47 13.5t38.5 21.5t33 30.5t20.5 41.5t9.5 53v180q0 12 2 56t0.5 74t-10.5 55q-42 118 -226 118z" />
    <glyph glyph-name="E" unicode="E" 
d="M62 0q-9 0 -15.5 6.5t-6.5 15.5v695q0 9 6.5 15.5t15.5 6.5h444q21 0 21 -22t-21 -22h-421v-216h377q21 0 21 -22.5t-21 -22.5h-377v-389h421q21 0 21 -22.5t-21 -22.5h-444z" />
    <glyph glyph-name="F" unicode="F" 
d="M85 22q0 -14 -11.5 -19.5t-22.5 0t-11 19.5v703q0 9 6.5 16t15.5 7h444q21 0 21 -22.5t-21 -22.5h-421v-216h377q21 0 21 -22t-21 -22h-377v-421z" />
    <glyph glyph-name="G" unicode="G" horiz-adv-x="683" 
d="M357 701q-91 -1 -157 -57t-92.5 -135.5t-20 -170.5t48.5 -160q82 -133 243 -133q81 1 143.5 44t73.5 118h-176q-14 0 -19.5 11t0 22.5t19.5 11.5h201q9 0 16 -6.5t6 -15.5q-3 -109 -85 -170t-194 -60q-72 0 -132 29.5t-99.5 77.5t-63.5 111t-28.5 128.5t11.5 132.5
t51 121q99 151 289 146q101 -2 174.5 -66t76.5 -163q0 -14 -11 -19.5t-22.5 0t-11.5 19.5q-3 92 -74 139t-167 45z" />
    <glyph glyph-name="H" unicode="H" horiz-adv-x="549" 
d="M509 21q0 -14 -11.5 -19.5t-22.5 0.5t-11 19v438h-379v-438q0 -14 -11.5 -19.5t-22.5 0.5t-11 19v687q0 14 11 19.5t22.5 0t11.5 -19.5v-205h379v205q0 14 11 19.5t22.5 0t11.5 -19.5v-687z" />
    <glyph glyph-name="I" unicode="I" horiz-adv-x="244" 
d="M144 21q0 -14 -11 -19.5t-22 0t-11 19.5v696q0 14 11 19.5t22 0t11 -19.5v-696z" />
    <glyph glyph-name="J" unicode="J" horiz-adv-x="577" 
d="M512 126q-27 -51 -72.5 -82.5t-97 -40t-105 2t-96.5 38.5t-71 75t-30 106q0 14 11 19.5t22.5 0t11.5 -19.5q1 -51 28 -92t68.5 -62t91 -27.5t95.5 12.5q58 22 91 70.5t33 111.5v162v302h-217q-14 0 -19.5 11t0 22.5t19.5 11.5h239q9 0 16 -7t7 -16v-179v-249v-21v-23
t-0.5 -20.5t-1.5 -22.5t-3 -20t-4.5 -22.5t-6.5 -19.5t-9 -21z" />
    <glyph glyph-name="K" unicode="K" horiz-adv-x="555" 
d="M476 736q10 9 22.5 5t15 -15t-6.5 -21q-37 -34 -112.5 -102.5t-113.5 -102.5q1 0 1 -1t1 -2q38 -78 113 -233t113 -232q6 -12 -1.5 -23t-18.5 -11t-19 11q-42 88 -120 248t-103 212q-26 -24 -80 -72t-80 -72l-2 -2v-302q0 -14 -11.5 -19.5t-22.5 0t-11 19.5v696
q0 14 11 19.5t22.5 0t11.5 -19.5v-334q116 105 391 353z" />
    <glyph glyph-name="L" unicode="L" horiz-adv-x="539" 
d="M40 720q0 21 22.5 21t22.5 -21v-674h392q14 0 19.5 -11t0 -22.5t-19.5 -11.5h-415q-9 0 -15.5 6.5t-6.5 15.5v697z" />
    <glyph glyph-name="M" unicode="M" horiz-adv-x="701" 
d="M623 734q11 9 24.5 4t13.5 -20v-698q0 -14 -11.5 -19.5t-22.5 0.5t-11 19v651q-166 -140 -250 -209q-16 -12 -31 0q-184 153 -250 209v-651q0 -14 -11.5 -19.5t-22.5 0.5t-11 19v699q0 15 14 20t24 -4q182 -152 272 -228q91 75 273 227z" />
    <glyph glyph-name="N" unicode="N" horiz-adv-x="585" 
d="M501 729q0 21 22 21t22 -21v-707q0 -17 -16.5 -21.5t-24.5 9.5q-11 17 -31.5 48.5t-26.5 40.5q-121 185 -361 555v-632q0 -14 -11.5 -19.5t-22.5 0t-11 19.5v707q0 17 16.5 21t25.5 -10q6 -9 26.5 -40.5t31.5 -48.5q38 -58 165 -253t196 -301v632z" />
    <glyph glyph-name="O" unicode="O" horiz-adv-x="715" 
d="M668 466q25 -134 -25.5 -261t-169.5 -181q-102 -42 -200 -9.5t-161 122.5q-66 96 -71 220t52 226q55 99 157 144t205 6q154 -58 211 -259v-2l1 -2l1 -2v-2zM494 87q84 58 117.5 161.5t12.5 209.5q-25 90 -76.5 155.5t-133.5 85.5q-95 24 -178.5 -30t-122.5 -148
q-39 -92 -24.5 -200t80.5 -184q63 -73 153.5 -88t171.5 38z" />
    <glyph glyph-name="P" unicode="P" horiz-adv-x="507" 
d="M267 743q66 0 115 -14t85 -55q40 -46 44.5 -114t-30.5 -118q-59 -86 -209 -86h-184h-1q2 -224 2 -335q0 -14 -11.5 -19.5t-22.5 0t-11 19.5q0 116 -2 349.5t-2 350.5q0 9 7 15.5t16 6.5h204zM283 401q83 0 135.5 42.5t46.5 123.5q-4 50 -39 85t-85 44q-11 2 -88 2h-168
q0 -99 2 -297h1l98 -1q97 0 97 1z" />
    <glyph glyph-name="Q" unicode="Q" horiz-adv-x="716" 
d="M402 745q90 -14 157 -81t97 -159q33 -102 13 -210.5t-89 -190.5q-8 -11 -20 -7t-15.5 15t3.5 23q64 77 79.5 180.5t-21.5 196.5q-32 83 -98 137.5t-150 54.5q-87 0 -155.5 -60t-97.5 -148q-31 -89 -14.5 -189.5t78.5 -171.5q61 -71 147 -86.5t165 30.5q-43 20 -79 3
q-12 -6 -23 2t-10.5 19t11.5 18q51 24 103 7q11 -4 35 -21.5t45.5 -27.5t38.5 -2q12 6 23 -2t11 -19t-12 -18q-42 -19 -99 15q-106 -72 -223 -47t-190 129q-63 91 -71 208t41 216q44 94 132 148t188 38z" />
    <glyph glyph-name="R" unicode="R" horiz-adv-x="551" 
d="M396 377q110 -47 114 -158v-197q0 -14 -11 -19.5t-22.5 0t-11.5 19.5v172q0 64 -23 95q-47 66 -166 68l-2 1q-9 0 -16 6.5t-7 15.5t6.5 15.5t15.5 6.5h2h1h6q84 1 136.5 43.5t46.5 123.5q-4 49 -39.5 84t-85.5 44q-17 3 -88 3h-167q0 -162 1 -243v-30v-25l1 -108
q1 -91 1 -272q0 -14 -11 -19.5t-22.5 0t-11.5 19.5q0 117 -1.5 350.5t-1.5 349.5q0 9 6.5 16t15.5 7h205q66 0 115 -14t85 -55q40 -47 44 -114.5t-31 -118.5q-31 -45 -84 -66z" />
    <glyph glyph-name="S" unicode="S" horiz-adv-x="577" 
d="M269 45q64 -6 123 9.5t84 62.5q26 45 13.5 96t-59.5 73q-19 9 -43.5 15t-42.5 8.5t-47.5 5.5t-43.5 5q-108 16 -152 61q-45 48 -52 122q-6 89 56 156.5t152 78.5q106 13 191 -53t89 -172q0 -14 -11 -19.5t-22.5 0t-11.5 19.5q-2 60 -37 104.5t-86.5 61t-105.5 13.5
t-99.5 -37t-62.5 -92q-21 -67 13 -125q13 -22 31.5 -37t46.5 -23t44.5 -11t50.5 -7q28 -3 38.5 -4.5t37.5 -5.5t40.5 -8.5l36 -12t35 -17.5t27 -23.5t22.5 -31t11 -39.5q6 -46 -7.5 -90.5t-45.5 -73.5q-53 -48 -164 -54q-109 -6 -191.5 56.5t-86.5 170.5q0 14 11 19.5
t22.5 0t11.5 -19.5q2 -73 55.5 -124.5t128.5 -57.5z" />
    <glyph glyph-name="T" unicode="T" horiz-adv-x="629" 
d="M567 740q14 0 19.5 -11t0 -22.5t-19.5 -11.5h-226v-673q0 -14 -11 -19.5t-22 0t-11 19.5v673h-235q-14 0 -19.5 11.5t0 22.5t19.5 11h505z" />
    <glyph glyph-name="U" unicode="U" horiz-adv-x="579" 
d="M85 423v-149q0 -82 11 -109q21 -54 68.5 -85.5t101.5 -33.5t104.5 15t85 61.5t36.5 103.5q2 73 2 155t-1 182t-1 154q0 14 11 19.5t22.5 0t11.5 -19.5v-336q0 -12 1 -58.5t0 -67t-5.5 -56.5t-16.5 -63t-32 -50q-55 -64 -141.5 -81.5t-166.5 19t-116 114.5q-20 42 -20 126
v168v285q0 14 11 19.5t22.5 0t11.5 -19.5v-294z" />
    <glyph glyph-name="V" unicode="V" horiz-adv-x="631" 
d="M547 728q5 13 17.5 15t21.5 -6t4 -21q-201 -552 -256 -700q-5 -16 -21 -16t-22 16q-42 117 -125 350.5t-124 350.5q-5 13 4 21t21.5 6t17.5 -15l228 -642q156 428 234 641z" />
    <glyph glyph-name="W" unicode="W" horiz-adv-x="701" 
d="M616 729q0 14 11 19.5t22.5 0t11.5 -19.5v-707q0 -15 -13.5 -20t-24.5 4l-273 228q-90 -76 -272 -228q-10 -9 -24 -4t-14 20v707q0 14 11 19.5t22.5 0t11.5 -19.5v-659q45 37 128.5 107.5t121.5 101.5q15 12 31 0q84 -70 250 -210v660z" />
    <glyph glyph-name="X" unicode="X" horiz-adv-x="633" 
d="M487 97q-57 78 -169 234q-79 -107 -235 -321q-8 -11 -21.5 -9.5t-19 10.5t1.5 21l63 87q31 41 91.5 125t91.5 125l-240 333q-8 11 -1.5 21.5t18.5 11t21 -9.5q11 -14 32.5 -44t31.5 -44q21 -29 78 -108t88 -122q38 53 115.5 159t116.5 159q8 11 21 9.5t18.5 -11
t-1.5 -21.5q-10 -15 -31 -43.5t-32 -42.5q-30 -41 -90 -123.5t-90 -123.5q162 -224 243 -337q8 -11 1.5 -21t-18.5 -10.5t-21 9.5z" />
    <glyph glyph-name="Y" unicode="Y" horiz-adv-x="633" 
d="M550 733q8 10 21.5 8.5t18.5 -10.5t-2 -21q-20 -27 -251 -332v-356q0 -14 -11 -19.5t-22 0t-11 19.5v352l-249 336q-8 11 -1 21.5t19 11t21 -9.5q39 -52 116 -156.5t115 -156.5q43 58 123.5 164.5t112.5 148.5z" />
    <glyph glyph-name="Z" unicode="Z" horiz-adv-x="613" 
d="M551 45q21 0 21 -22.5t-21 -22.5h-488q-12 0 -19.5 11.5t-0.5 22.5q21 28 61 86q68 95 202 286.5t202 286.5h-430q-14 0 -19.5 11.5t0 22.5t19.5 11h473q12 0 19 -12t0 -22q-49 -69 -61 -86q-67 -95 -201.5 -286t-201.5 -287h445z" />
    <glyph glyph-name="bracketleft" unicode="[" horiz-adv-x="212" 
d="M85 753v-82v-716h65q14 0 19.5 -11.5t0 -22.5t-19.5 -11h-87q-9 0 -16 7t-7 16v104v739q0 9 7 15.5t16 6.5h87q14 0 19.5 -11t0 -22.5t-19.5 -11.5h-65z" />
    <glyph glyph-name="backslash" unicode="\" horiz-adv-x="397" 
d="M42 752q-5 13 3.5 23t20.5 10t17 -13q22 -60 34 -91q110 -290 238 -632q5 -13 -3 -23t-20 -9.5t-17 13.5q-6 15 -17.5 45t-16.5 45q-40 105 -120 315.5t-119 316.5z" />
    <glyph glyph-name="bracketright" unicode="]" horiz-adv-x="211" 
d="M149 798q9 0 15.5 -7t6.5 -16v-104v-739q0 -9 -6.5 -15.5t-15.5 -6.5h-87q-14 0 -19.5 11t0 22.5t19.5 11.5h64v82v716h-64q-14 0 -19.5 11.5t0 22.5t19.5 11h87z" />
    <glyph glyph-name="asciicircum" unicode="^" horiz-adv-x="293" 
d="M159 856q14 -10 42 -28.5t42 -27.5q11 -8 10 -21t-10.5 -18.5t-21.5 0.5q-40 25 -73 49q-13 -8 -38 -24.5t-37 -24.5t-22.5 -1t-10.5 19t10 21q8 5 39 25t47 31q12 7 23 0z" />
    <glyph glyph-name="underscore" unicode="_" horiz-adv-x="653" 
d="M591 45q14 0 19.5 -11t0 -22.5t-19.5 -11.5h-529q-14 0 -19.5 11t0 22.5t19.5 11.5h529z" />
    <glyph glyph-name="grave" unicode="`" horiz-adv-x="169" 
d="M116 773q12 -8 22.5 -1t10.5 19t-10 20q-58 38 -86 56q-12 8 -22.5 1t-10.5 -19t10 -21q13 -8 86 -55z" />
    <glyph glyph-name="a" unicode="a" horiz-adv-x="591" 
d="M300 727q26 -72 114 -319t136 -382q5 -13 -4 -21t-21.5 -5.5t-17.5 14.5q-9 24 -31 86.5t-34 95.5h-331q-52 -143 -67 -181q-4 -13 -16.5 -15t-21.5 6t-5 21q55 148 256 700q6 16 22 16t21 -16zM127 241h299q-98 276 -148 415q-28 -78 -80 -219.5t-71 -195.5z" />
    <glyph glyph-name="b" unicode="b" horiz-adv-x="573" 
d="M49 9q-6 6 -6 15q0 116 -1.5 347.5t-1.5 347.5q0 9 6.5 15.5t15.5 6.5q26 0 76 0.5t75 0.5q58 0 98 -7t75 -32q49 -35 67.5 -90t-2.5 -112q-24 -58 -78 -89q82 -23 125 -87q43 -63 33 -137t-66 -125q-43 -38 -94 -50t-123 -12q-31 0 -91.5 0.5t-90.5 0.5q-10 0 -15 6
q-1 0 -1 1h-1zM262 697q0 1 -88 1l-89 -1q0 -109 1.5 -325.5t1.5 -325.5h116q11 0 38 -0.5t42 -0.5t37 2.5t40 7.5q76 23 111 92t-3 141q-52 93 -207 93q-21 0 -21 22t21 23q63 2 110.5 41t44.5 100q-2 58 -48.5 93t-106.5 37z" />
    <glyph glyph-name="c" unicode="c" horiz-adv-x="673" 
d="M305 6q-90 17 -154.5 81.5t-90 149t-18.5 178t49 167.5q41 74 112 119.5t153 46.5q183 2 272 -132q8 -11 1.5 -21.5t-18.5 -10.5t-21 10q-50 73 -141 99.5t-174 -5.5q-89 -32 -139.5 -118.5t-52.5 -186.5q-2 -99 45 -188t132 -128q84 -40 181 -15.5t149 101.5q8 11 21 10
t18.5 -10.5t-0.5 -22.5q-53 -79 -140 -110.5t-184 -13.5z" />
    <glyph glyph-name="d" unicode="d" horiz-adv-x="575" 
d="M66 1q-9 0 -16 6.5t-7 15.5q0 116 -1.5 347.5t-1.5 347.5q0 9 6.5 15.5t15.5 6.5q23 0 65.5 1.5t72.5 2t70.5 -1t71.5 -8.5t63.5 -19.5t58 -35.5t43.5 -54q10 -18 16.5 -37.5t8.5 -44t2.5 -39.5t0 -45.5t-0.5 -40.5v-206q-4 -94 -74.5 -152.5t-166.5 -59.5q-77 -1 -227 1
zM255 695q-114 0 -170 1q0 -108 1.5 -325t1.5 -326q12 0 46 -1.5t51.5 -2t51.5 0t54 3t49.5 7.5t47 13.5t38.5 21.5t33 30.5t20.5 41.5t9.5 53v180q0 12 2 56t0.5 74t-10.5 55q-42 118 -226 118z" />
    <glyph glyph-name="e" unicode="e" 
d="M62 0q-9 0 -15.5 6.5t-6.5 15.5v695q0 9 6.5 15.5t15.5 6.5h444q21 0 21 -22t-21 -22h-421v-216h377q21 0 21 -22.5t-21 -22.5h-377v-389h421q21 0 21 -22.5t-21 -22.5h-444z" />
    <glyph glyph-name="f" unicode="f" 
d="M85 22q0 -14 -11.5 -19.5t-22.5 0t-11 19.5v703q0 9 6.5 16t15.5 7h444q21 0 21 -22.5t-21 -22.5h-421v-216h377q21 0 21 -22t-21 -22h-377v-421z" />
    <glyph glyph-name="g" unicode="g" horiz-adv-x="683" 
d="M357 701q-91 -1 -157 -57t-92.5 -135.5t-20 -170.5t48.5 -160q82 -133 243 -133q81 1 143.5 44t73.5 118h-176q-14 0 -19.5 11t0 22.5t19.5 11.5h201q9 0 16 -6.5t6 -15.5q-3 -109 -85 -170t-194 -60q-72 0 -132 29.5t-99.5 77.5t-63.5 111t-28.5 128.5t11.5 132.5
t51 121q99 151 289 146q101 -2 174.5 -66t76.5 -163q0 -14 -11 -19.5t-22.5 0t-11.5 19.5q-3 92 -74 139t-167 45z" />
    <glyph glyph-name="h" unicode="h" horiz-adv-x="549" 
d="M509 21q0 -14 -11.5 -19.5t-22.5 0.5t-11 19v438h-379v-438q0 -14 -11.5 -19.5t-22.5 0.5t-11 19v687q0 14 11 19.5t22.5 0t11.5 -19.5v-205h379v205q0 14 11 19.5t22.5 0t11.5 -19.5v-687z" />
    <glyph glyph-name="i" unicode="i" horiz-adv-x="244" 
d="M144 21q0 -14 -11 -19.5t-22 0t-11 19.5v696q0 14 11 19.5t22 0t11 -19.5v-696z" />
    <glyph glyph-name="j" unicode="j" horiz-adv-x="577" 
d="M512 126q-27 -51 -72.5 -82.5t-97 -40t-105 2t-96.5 38.5t-71 75t-30 106q0 14 11 19.5t22.5 0t11.5 -19.5q1 -51 28 -92t68.5 -62t91 -27.5t95.5 12.5q58 22 91 70.5t33 111.5v162v302h-217q-14 0 -19.5 11t0 22.5t19.5 11.5h239q9 0 16 -7t7 -16v-179v-249v-21v-23
t-0.5 -20.5t-1.5 -22.5t-3 -20t-4.5 -22.5t-6.5 -19.5t-9 -21z" />
    <glyph glyph-name="k" unicode="k" horiz-adv-x="555" 
d="M476 736q10 9 22.5 5t15 -15t-6.5 -21q-37 -34 -112.5 -102.5t-113.5 -102.5q1 0 1 -1t1 -2q38 -78 113 -233t113 -232q6 -12 -1.5 -23t-18.5 -11t-19 11q-42 88 -120 248t-103 212q-26 -24 -80 -72t-80 -72l-2 -2v-302q0 -14 -11.5 -19.5t-22.5 0t-11 19.5v696
q0 14 11 19.5t22.5 0t11.5 -19.5v-334q116 105 391 353z" />
    <glyph glyph-name="l" unicode="l" horiz-adv-x="539" 
d="M40 720q0 21 22.5 21t22.5 -21v-674h392q14 0 19.5 -11t0 -22.5t-19.5 -11.5h-415q-9 0 -15.5 6.5t-6.5 15.5v697z" />
    <glyph glyph-name="m" unicode="m" horiz-adv-x="701" 
d="M623 734q11 9 24.5 4t13.5 -20v-698q0 -14 -11.5 -19.5t-22.5 0.5t-11 19v651q-166 -140 -250 -209q-16 -12 -31 0q-184 153 -250 209v-651q0 -14 -11.5 -19.5t-22.5 0.5t-11 19v699q0 15 14 20t24 -4q182 -152 272 -228q91 75 273 227z" />
    <glyph glyph-name="n" unicode="n" horiz-adv-x="585" 
d="M501 729q0 21 22 21t22 -21v-707q0 -17 -16.5 -21.5t-24.5 9.5q-11 17 -31.5 48.5t-26.5 40.5q-121 185 -361 555v-632q0 -14 -11.5 -19.5t-22.5 0t-11 19.5v707q0 17 16.5 21t25.5 -10q6 -9 26.5 -40.5t31.5 -48.5q38 -58 165 -253t196 -301v632z" />
    <glyph glyph-name="o" unicode="o" horiz-adv-x="715" 
d="M668 466q25 -134 -25.5 -261t-169.5 -181q-102 -42 -200 -9.5t-161 122.5q-66 96 -71 220t52 226q55 99 157 144t205 6q154 -58 211 -259v-2l1 -2l1 -2v-2zM494 87q84 58 117.5 161.5t12.5 209.5q-25 90 -76.5 155.5t-133.5 85.5q-95 24 -178.5 -30t-122.5 -148
q-39 -92 -24.5 -200t80.5 -184q63 -73 153.5 -88t171.5 38z" />
    <glyph glyph-name="p" unicode="p" horiz-adv-x="507" 
d="M267 743q66 0 115 -14t85 -55q40 -46 44.5 -114t-30.5 -118q-59 -86 -209 -86h-184h-1q2 -224 2 -335q0 -14 -11.5 -19.5t-22.5 0t-11 19.5q0 116 -2 349.5t-2 350.5q0 9 7 15.5t16 6.5h204zM283 401q83 0 135.5 42.5t46.5 123.5q-4 50 -39 85t-85 44q-11 2 -88 2h-168
q0 -99 2 -297h1l98 -1q97 0 97 1z" />
    <glyph glyph-name="q" unicode="q" horiz-adv-x="716" 
d="M402 745q90 -14 157 -81t97 -159q33 -102 13 -210.5t-89 -190.5q-8 -11 -20 -7t-15.5 15t3.5 23q64 77 79.5 180.5t-21.5 196.5q-32 83 -98 137.5t-150 54.5q-87 0 -155.5 -60t-97.5 -148q-31 -89 -14.5 -189.5t78.5 -171.5q61 -71 147 -86.5t165 30.5q-43 20 -79 3
q-12 -6 -23 2t-10.5 19t11.5 18q51 24 103 7q11 -4 35 -21.5t45.5 -27.5t38.5 -2q12 6 23 -2t11 -19t-12 -18q-42 -19 -99 15q-106 -72 -223 -47t-190 129q-63 91 -71 208t41 216q44 94 132 148t188 38z" />
    <glyph glyph-name="r" unicode="r" horiz-adv-x="552" 
d="M396 377q110 -47 114 -158v-197q0 -14 -11 -19.5t-22.5 0t-11.5 19.5v172q0 64 -23 95q-47 66 -166 68l-2 1q-9 0 -16 6.5t-7 15.5t6.5 15.5t15.5 6.5h2h1h6q84 1 136.5 43.5t46.5 123.5q-4 49 -39.5 84t-85.5 44q-17 3 -88 3h-167q0 -162 1 -243v-30v-25l1 -108
q1 -91 1 -272q0 -14 -11 -19.5t-22.5 0t-11.5 19.5q0 117 -1.5 350.5t-1.5 349.5q0 9 6.5 16t15.5 7h205q66 0 115 -14t85 -55q40 -47 44 -114.5t-31 -118.5q-31 -45 -84 -66z" />
    <glyph glyph-name="s" unicode="s" horiz-adv-x="577" 
d="M269 45q64 -6 123 9.5t84 62.5q26 45 13.5 96t-59.5 73q-19 9 -43.5 15t-42.5 8.5t-47.5 5.5t-43.5 5q-108 16 -152 61q-45 48 -52 122q-6 89 56 156.5t152 78.5q106 13 191 -53t89 -172q0 -14 -11 -19.5t-22.5 0t-11.5 19.5q-2 60 -37 104.5t-86.5 61t-105.5 13.5
t-99.5 -37t-62.5 -92q-21 -67 13 -125q13 -22 31.5 -37t46.5 -23t44.5 -11t50.5 -7q28 -3 38.5 -4.5t37.5 -5.5t40.5 -8.5l36 -12t35 -17.5t27 -23.5t22.5 -31t11 -39.5q6 -46 -7.5 -90.5t-45.5 -73.5q-53 -48 -164 -54q-109 -6 -191.5 56.5t-86.5 170.5q0 14 11 19.5
t22.5 0t11.5 -19.5q2 -73 55.5 -124.5t128.5 -57.5z" />
    <glyph glyph-name="t" unicode="t" horiz-adv-x="629" 
d="M567 740q14 0 19.5 -11t0 -22.5t-19.5 -11.5h-226v-673q0 -14 -11 -19.5t-22 0t-11 19.5v673h-235q-14 0 -19.5 11.5t0 22.5t19.5 11h505z" />
    <glyph glyph-name="u" unicode="u" horiz-adv-x="579" 
d="M85 423v-149q0 -82 11 -109q21 -54 68.5 -85.5t101.5 -33.5t104.5 15t85 61.5t36.5 103.5q2 73 2 155t-1 182t-1 154q0 14 11 19.5t22.5 0t11.5 -19.5v-336q0 -12 1 -58.5t0 -67t-5.5 -56.5t-16.5 -63t-32 -50q-55 -64 -141.5 -81.5t-166.5 19t-116 114.5q-20 42 -20 126
v168v285q0 14 11 19.5t22.5 0t11.5 -19.5v-294z" />
    <glyph glyph-name="v" unicode="v" horiz-adv-x="631" 
d="M547 728q5 13 17.5 15t21.5 -6t4 -21q-201 -552 -256 -700q-5 -16 -21 -16t-22 16q-42 117 -125 350.5t-124 350.5q-5 13 4 21t21.5 6t17.5 -15l228 -642q156 428 234 641z" />
    <glyph glyph-name="w" unicode="w" horiz-adv-x="701" 
d="M616 729q0 14 11 19.5t22.5 0t11.5 -19.5v-707q0 -15 -13.5 -20t-24.5 4l-273 228q-90 -76 -272 -228q-10 -9 -24 -4t-14 20v707q0 14 11 19.5t22.5 0t11.5 -19.5v-659q45 37 128.5 107.5t121.5 101.5q15 12 31 0q84 -70 250 -210v660z" />
    <glyph glyph-name="x" unicode="x" horiz-adv-x="633" 
d="M487 97q-57 78 -169 234q-79 -107 -235 -321q-8 -11 -21.5 -9.5t-19 10.5t1.5 21l63 87q31 41 91.5 125t91.5 125l-240 333q-8 11 -1.5 21.5t18.5 11t21 -9.5q11 -14 32.5 -44t31.5 -44q21 -29 78 -108t88 -122q38 53 115.5 159t116.5 159q8 11 21 9.5t18.5 -11
t-1.5 -21.5q-10 -15 -31 -43.5t-32 -42.5q-30 -41 -90 -123.5t-90 -123.5q162 -224 243 -337q8 -11 1.5 -21t-18.5 -10.5t-21 9.5z" />
    <glyph glyph-name="y" unicode="y" horiz-adv-x="633" 
d="M550 733q8 10 21.5 8.5t18.5 -10.5t-2 -21q-20 -27 -251 -332v-356q0 -14 -11 -19.5t-22 0t-11 19.5v352l-249 336q-8 11 -1 21.5t19 11t21 -9.5q39 -52 116 -156.5t115 -156.5q43 58 123.5 164.5t112.5 148.5z" />
    <glyph glyph-name="z" unicode="z" horiz-adv-x="613" 
d="M551 45q21 0 21 -22.5t-21 -22.5h-488q-12 0 -19.5 11.5t-0.5 22.5q21 28 61 86q68 95 202 286.5t202 286.5h-430q-14 0 -19.5 11.5t0 22.5t19.5 11h473q12 0 19 -12t0 -22q-49 -69 -61 -86q-67 -95 -201.5 -286t-201.5 -287h445z" />
    <glyph glyph-name="braceleft" unicode="{" horiz-adv-x="317" 
d="M266 -46q11 -8 11 -19.5t-11 -19t-23 -0.5q-68 38 -105.5 103t-38.5 144q0 8 2 31.5t2 41t-2.5 38t-12.5 32.5t-26 13q-14 1 -19.5 12t0 21.5t19.5 11.5q17 1 25.5 12t10 21.5t1.5 29.5v117q1 80 37 145t105 103q12 7 22.5 0t11 -18.5t-10.5 -19.5q-52 -30 -84 -77.5
t-35 -105.5q-1 -18 -1 -105q0 -33 -0.5 -48.5t-7 -39.5t-19.5 -37q27 -29 27 -124q0 -79 3 -98q16 -106 119 -164z" />
    <glyph glyph-name="bar" unicode="|" horiz-adv-x="125" 
d="M40 700q0 14 11 19.5t22.5 0t11.5 -19.5v-721q0 -14 -11.5 -19.5t-22.5 0t-11 19.5v721z" />
    <glyph glyph-name="braceright" unicode="}" horiz-adv-x="317" 
d="M255 388q14 -1 19.5 -12t0 -21.5t-19.5 -11.5q-17 -1 -26 -12t-10 -21t-1 -29v-58.5t-1 -58.5q0 -81 -36 -146t-105 -103q-19 -11 -30.5 8.5t7.5 30.5q52 29 83.5 76.5t35.5 105.5v105q0 2 0.5 16.5t0.5 18.5t0.5 16.5t2 17.5t3.5 15.5t4.5 16t7 12.5t9.5 12
q-28 29 -28 124q0 85 -2 98q-8 53 -39.5 95.5t-79.5 68.5q-11 8 -11 19.5t10.5 19t22.5 0.5q69 -38 106.5 -103t37.5 -144q0 -9 -1.5 -32t-1.5 -41t2.5 -38t12.5 -32t26 -13z" />
    <glyph glyph-name="exclamdown" unicode="&#xa1;" horiz-adv-x="125" 
d="M36 -19q1 102 2.5 306.5t2.5 307.5q0 14 11.5 19.5t22.5 0t11 -19.5q-1 -102 -2.5 -307t-2.5 -307q0 -14 -11.5 -19.5t-22.5 0.5t-11 19zM65 665q-17 0 -23.5 14t0 27t23.5 12q17 1 23.5 -12t0 -27t-23.5 -14z" />
    <glyph glyph-name="cent" unicode="&#xa2;" horiz-adv-x="485" 
d="M406 125q7 10 19 9t17 -10t-1 -20q-57 -82 -159 -89v-16q0 -19 -20.5 -19t-20.5 19v17q-29 3 -53 13q-71 27 -110.5 97t-37.5 150t45 148t117 90q13 4 39 8v27q0 19 20.5 19t20.5 -19v-27q103 -8 159 -90q7 -10 1 -19.5t-17 -10t-19 9.5q-42 62 -124 70v-427q82 7 124 70
zM203 66q16 -7 38 -10v425q-15 -1 -33 -8q-59 -19 -92.5 -75.5t-35.5 -121.5q-2 -67 31 -127t92 -83z" />
    <glyph glyph-name="sterling" unicode="&#xa3;" horiz-adv-x="601" 
d="M519 111q2 13 13.5 15.5t21 -6t7.5 -21.5q-7 -48 -43 -76q-60 -49 -170 16q-17 11 -35 11t-29.5 -5.5t-31.5 -18t-31 -17.5q-27 -12 -46.5 -1.5t-24.5 40.5q-3 26 1.5 74.5t4.5 63.5q0 60 -10 113q-2 10 -18 79h-68q-20 0 -20 22t20 22h55q-1 3 -4 16.5t-5 21.5
q-19 101 31.5 183t151.5 97q68 11 129 -18.5t82 -84t-15 -125.5q-8 -10 -19 -10t-18 10.5t0 22.5q31 57 5.5 102.5t-88.5 58.5q-51 12 -104.5 -7.5t-84.5 -61.5q-32 -44 -32 -100.5t17 -104.5h104q21 0 21 -22t-21 -22h-92q1 -2 2 -6.5t2 -6.5q18 -77 21 -153q1 -47 -4 -115
q-1 -14 -1 -42q0 -5 2 -9v-1q4 0 12 4.5t17 10.5t11 7q27 16 45 23q16 5 28.5 6.5t26 -3t22 -9.5l25.5 -15q30 -17 58.5 -21t51 11.5t27.5 51.5z" />
    <glyph glyph-name="currency" unicode="&#xa4;" horiz-adv-x="628" 
d="M517 174l53 -53q8 -9 4 -20t-13.5 -13.5t-19.5 4.5l-54 54q-74 -62 -175 -62q-97 3 -171 63q-4 -5 -13 -13.5t-14 -12.5l-29 -29q-9 -9 -19.5 -5t-13.5 14t5 20q4 4 8.5 9t10.5 10.5t9 8.5t8 8.5t9.5 9.5t8.5 8q-56 59 -68 142q-17 120 60 213q-2 3 -5 5.5t-6.5 6
l-5.5 5.5l-1 1q-4 4 -8.5 9t-10.5 10.5t-9 8.5q-9 9 -5 20t13.5 14t19.5 -5q16 -15 46 -45q26 23 56 38q74 37 156 28t146 -61q1 -1 3 -2.5t3 -2.5q7 8 22.5 23t23.5 22q8 9 19.5 5t14 -14t-4.5 -20q-16 -15 -46 -45q48 -57 60 -132.5t-16 -145.5q-20 -47 -51 -79zM81 367
q-4 -98 64.5 -168t166.5 -75q93 0 162 64t73 157q4 98 -65 169.5t-167 73.5q-92 1 -160.5 -64t-73.5 -157z" />
    <glyph glyph-name="yen" unicode="&#xa5;" horiz-adv-x="637" 
d="M553 738q14 17 34 5q16 -12 5 -28l-240 -318h126q14 0 19.5 -11.5t0 -22.5t-19.5 -11h-139v-131h139q14 0 19.5 -11t0 -22.5t-19.5 -11.5h-139v-154q0 -14 -11 -19.5t-22 0t-11 19.5v154h-136q-14 0 -19.5 11t0 22.5t19.5 11.5h136v131h-136q-14 0 -19.5 11t0 22.5
t19.5 11.5h120q-156 212 -235 318q-8 11 -1 21.5t19 11t21 -9.5q39 -53 116.5 -157.5t116.5 -157.5z" />
    <glyph glyph-name="brokenbar" unicode="&#xa6;" horiz-adv-x="125" 
d="M40 600q0 14 11 19.5t22.5 0t11.5 -19.5v-113q0 -14 -11.5 -19.5t-22.5 0t-11 19.5v113zM40 247q0 14 11 19.5t22.5 0t11.5 -19.5v-113q0 -14 -11.5 -19.5t-22.5 0t-11 19.5v113z" />
    <glyph glyph-name="section" unicode="&#xa7;" horiz-adv-x="625" 
d="M509 158q37 -17 53.5 -53.5t7.5 -83.5q-17 -98 -101 -156t-185 -48q-100 9 -170.5 78.5t-73.5 169.5q0 9 4.5 15t12 7.5t14.5 0t12.5 -7.5t5.5 -15q2 -67 44.5 -117.5t100.5 -70t124 -8t111 57.5q28 28 45 67.5t11 73.5q-9 58 -105 54q-208 -10 -308 65q-60 45 -70 121
t36 135q18 24 50 44q-23 8 -38 22q-39 34 -40.5 94t22.5 102q27 58 76 94t104.5 46t114 -1.5t106 -42t78.5 -82.5t33 -116q0 -15 -12 -21.5t-24.5 0t-12.5 21.5q-2 59 -36 106t-83.5 70t-108.5 23t-109 -28q-32 -19 -61 -57t-40 -82t16 -80q13 -17 35.5 -24t45 -6.5
t46.5 0.5h3h6h9q88 -4 140 -15q71 -15 121.5 -53.5t61.5 -102.5q10 -60 -9 -111.5t-63 -84.5zM106 263q22 -36 62 -57.5t83.5 -26.5t91.5 -7.5t86 0.5q61 20 90.5 73t10.5 116q-22 72 -134 100q-54 13 -153 15q-80 -7 -131 -73.5t-6 -139.5z" />
    <glyph glyph-name="dieresis" unicode="&#xa8;" horiz-adv-x="600" 
d="M226 833q19 0 27 -15.5t0 -31.5t-27 -16t-26.5 16t0 31.5t26.5 15.5zM365 833q19 0 26.5 -15.5t0 -31.5t-26.5 -16t-27 16t0 31.5t27 15.5z" />
    <glyph glyph-name="copyright" unicode="&#xa9;" horiz-adv-x="847" 
d="M568 174q8 11 20.5 9.5t18 -10.5t-0.5 -21q-42 -61 -114 -82.5t-141 5.5q-71 27 -111 96t-40 148t40 147t111 94q69 26 141 4.5t114 -82.5q8 -11 1 -21t-18.5 -10.5t-20.5 9.5q-34 50 -97.5 65.5t-117.5 -11.5q-52 -25 -80.5 -79.5t-28.5 -115.5q0 -63 30 -119.5
t84 -80.5q54 -25 115.5 -9.5t94.5 64.5zM671 611q94 -79 124.5 -200t-15.5 -235q-44 -108 -142.5 -173.5t-216.5 -65.5q-138 5 -245.5 93.5t-130.5 223.5q-20 121 34.5 233t162.5 170q104 54 221.5 41.5t207.5 -87.5zM755 243q25 105 -17.5 206t-134.5 157q-87 54 -190.5 51
t-187.5 -62q-89 -63 -124.5 -169.5t-1.5 -210.5q34 -103 123 -166.5t199 -67.5q119 0 213 73t121 189z" />
    <glyph glyph-name="guillemetleft" unicode="&#xab;" horiz-adv-x="325" 
d="M173 389q10 14 35 49.5t35 48.5q8 11 21 9.5t18.5 -11t-1.5 -21.5q-40 -59 -62 -88q8 -13 31.5 -50t31.5 -50q7 -12 -0.5 -22t-19 -10t-20.5 11q-9 15 -35 55.5t-35 55.5q-6 13 1 23zM43 389q10 14 35 49.5t35 48.5q8 11 21 9.5t18.5 -11t-1.5 -21.5q-40 -59 -62 -88
q7 -13 31.5 -50t31.5 -50q7 -12 -0.5 -22t-19 -10t-20.5 11q-9 15 -35 55.5t-35 55.5q-6 13 1 23z" />
    <glyph glyph-name="registered" unicode="&#xae;" horiz-adv-x="848" 
d="M526 332q59 -32 65 -96q1 -19 1 -41t-0.5 -48.5t-0.5 -41.5q0 -21 -21.5 -21t-21.5 21v107q-1 96 -114 99h-4q-39 -2 -108 0q1 -69 1 -206q0 -21 -21.5 -21t-21.5 21q0 75 -1 223t-1 222q0 9 6.5 15.5t14.5 6.5q13 0 42 1t47.5 1t46.5 -2t47 -6t41 -13t35 -22.5t22.5 -35
t10.5 -48.5q3 -85 -65 -115zM322 354q10 0 46 -1.5t57 -0.5q2 2 9 2h10q49 4 77.5 25.5t25.5 67.5q-2 42 -37 63t-80 20.5t-89 -0.5q-14 -1 -20 -1q0 -30 0.5 -88t0.5 -87zM671 617q95 -79 125 -200t-16 -235q-44 -108 -142 -173t-216 -65q-139 5 -246.5 93t-130.5 223
q-20 121 34.5 233t162.5 170q104 54 221.5 41.5t207.5 -87.5zM756 249q25 105 -18 206t-135 157q-86 54 -190.5 51.5t-187.5 -62.5q-89 -63 -124 -169.5t-1 -210.5q33 -103 122.5 -166.5t199.5 -67.5q118 0 212 73t122 189z" />
    <glyph glyph-name="macron" unicode="&#xaf;" horiz-adv-x="600" 
d="M170 776q-14 0 -19.5 11t0 22.5t19.5 11.5h258q14 0 19.5 -11.5t0 -22.5t-19.5 -11h-258z" />
    <glyph glyph-name="degree" unicode="&#xb0;" horiz-adv-x="270" 
d="M230 653q2 -39 -18.5 -67.5t-58.5 -35.5q-42 -8 -75.5 16t-37.5 66v4v4q1 40 21 67.5t59 32.5q42 6 75 -19.5t35 -67.5zM162 600q27 15 23 53q-3 26 -26 38t-47 1q-27 -13 -27 -56q1 -27 28 -38.5t49 2.5z" />
    <glyph glyph-name="acute" unicode="&#xb4;" horiz-adv-x="170" 
d="M53 766q-11 -8 -22 -1t-11 19t11 21q28 18 86 56q11 7 22 0t11 -18.5t-11 -20.5q-45 -31 -86 -56z" />
    <glyph glyph-name="paragraph" unicode="&#xb6;" horiz-adv-x="581" 
d="M541 672v-701q0 -14 -11.5 -19.5t-22.5 0t-11 19.5v701q0 14 11 19.5t22.5 0t11.5 -19.5zM85 624q36 42 84 56t115 14q35 0 60 -0.5t59 -0.5q9 0 15.5 -6.5t6.5 -15.5q0 -117 -1.5 -350t-1.5 -350q0 -14 -11 -19.5t-22.5 0t-11.5 19.5q0 111 2 335h-1h-98q-150 0 -209 86
q-35 50 -30.5 118t44.5 114zM86 518q-6 -81 46.5 -123.5t136.5 -43.5h109h1q1 99 1 298h-81q-71 0 -88 -3q-50 -9 -85.5 -44t-39.5 -84z" />
    <glyph glyph-name="periodcentered" unicode="&#xb7;" horiz-adv-x="257" 
d="M129 373q-31 0 -43.5 25t0 50t43.5 25q30 0 42.5 -25t0 -50t-42.5 -25z" />
    <glyph glyph-name="cedilla" unicode="&#xb8;" horiz-adv-x="600" 
d="M218 -99q38 1 49.5 27t12.5 72q0 14 11 19.5t22.5 0t11.5 -19.5q-2 -70 -20 -99q-24 -43 -87 -45q-14 0 -19.5 11t0 22.5t19.5 11.5z" />
    <glyph glyph-name="guillemetright" unicode="&#xbb;" horiz-adv-x="325" 
d="M152 357q-8 -11 -33.5 -47t-36.5 -50q-8 -11 -21 -9.5t-18.5 11t1.5 21.5q40 61 62 87q-8 14 -32 51.5t-31 49.5t0.5 22t19 10t20.5 -11q11 -18 38.5 -62t31.5 -50q6 -13 -1 -23zM282 357q-10 -13 -35 -48.5t-35 -49.5q-8 -11 -21 -9.5t-18.5 11t1.5 21.5q39 59 62 88
q-8 13 -32 50t-31 50q-7 12 0.5 22t19 10t20.5 -11q9 -14 35 -55t35 -56q6 -13 -1 -23z" />
    <glyph glyph-name="questiondown" unicode="&#xbf;" horiz-adv-x="570" 
d="M214 396q68 51 72 116q1 14 -2 82q0 14 11 19t22.5 -1.5t11.5 -19.5q1 -49 -0.5 -76.5t-15 -63.5t-41.5 -65q-21 -21 -61 -44t-70 -47.5t-44 -58.5q-27 -65 8.5 -130t102.5 -90q45 -19 93 -12.5t88 26.5t67 60t31 89q1 14 12.5 19t22.5 -1t10 -20q-6 -84 -65.5 -144
t-143.5 -72q-73 -10 -140.5 18t-106.5 88q-28 43 -33.5 93t13.5 97q26 59 79 92q11 7 38 21t41 25zM304 652q-15 1 -21 14.5t1 25.5t22 11q16 0 21.5 -13t-1 -25.5t-22.5 -12.5z" />
    <glyph glyph-name="Agrave" unicode="&#xc0;" horiz-adv-x="631" 
d="M299 773q12 -8 22.5 -1t10.5 19t-10 20q-58 38 -86 56q-12 8 -22.5 1t-10.5 -19t10 -21q13 -8 86 -55zM340 727q26 -72 114 -319t136 -382q5 -13 -4 -21t-21.5 -5.5t-17.5 14.5q-9 24 -31 86.5t-34 95.5h-331q-52 -143 -67 -181q-4 -13 -16.5 -15t-21.5 6t-5 21
q55 148 256 700q6 16 22 16t21 -16zM167 241h299q-98 276 -148 415q-28 -78 -80 -219.5t-71 -195.5z" />
    <glyph glyph-name="Aacute" unicode="&#xc1;" horiz-adv-x="631" 
d="M340 727q26 -72 114 -319t136 -382q5 -13 -4 -21t-21.5 -5.5t-17.5 14.5q-9 24 -31 86.5t-34 95.5h-331q-52 -143 -67 -181q-4 -13 -16.5 -15t-21.5 6t-5 21q55 148 256 700q6 16 22 16t21 -16zM167 241h299q-98 276 -148 415q-28 -78 -80 -219.5t-71 -195.5zM330 797
q-11 -8 -22 -1t-11 19t11 21q28 18 86 56q11 7 22 0t11 -18.5t-11 -20.5q-45 -31 -86 -56z" />
    <glyph glyph-name="Acircumflex" unicode="&#xc2;" horiz-adv-x="591" 
d="M290 854q14 -9 42 -27.5t42 -28.5q11 -8 10 -21t-10.5 -18.5t-21.5 0.5q-40 25 -73 49q-12 -8 -37 -24.5t-38 -24.5q-12 -8 -22.5 -1t-10.5 19t10 21q8 5 39 25t47 31q12 7 23 0zM300 727q26 -72 114 -319t136 -382q5 -13 -4 -21t-21.5 -5.5t-17.5 14.5q-9 24 -31 86.5
t-34 95.5h-331q-52 -143 -67 -181q-4 -13 -16.5 -15t-21.5 6t-5 21q55 148 256 700q6 16 22 16t21 -16zM127 241h299q-98 276 -148 415q-28 -78 -80 -219.5t-71 -195.5z" />
    <glyph glyph-name="Atilde" unicode="&#xc3;" horiz-adv-x="631" 
d="M340 727q26 -72 114 -319t136 -382q5 -13 -4 -21t-21.5 -5.5t-17.5 14.5q-9 24 -31 86.5t-34 95.5h-331q-52 -143 -67 -181q-4 -13 -16.5 -15t-21.5 6t-5 21q55 148 256 700q6 16 22 16t21 -16zM167 241h299q-98 276 -148 415q-28 -78 -80 -219.5t-71 -195.5zM385 846
q1 14 13 19.5t22.5 0t9.5 -19.5q-2 -28 -19 -47.5t-45 -23.5q-23 -3 -44 9q-6 3 -16 11t-17 12.5t-16 7t-16 -3t-13 -18.5q-8 -19 -27 -9q-19 12 -12 32q11 26 34 38.5t49 3.5q5 -2 18 -10t24.5 -15t24 -11.5t21 1.5t9.5 23z" />
    <glyph glyph-name="Adieresis" unicode="&#xc4;" horiz-adv-x="591" 
d="M300 727q26 -72 114 -319t136 -382q5 -13 -4 -21t-21.5 -5.5t-17.5 14.5q-9 24 -31 86.5t-34 95.5h-331q-52 -143 -67 -181q-4 -13 -16.5 -15t-21.5 6t-5 21q55 148 256 700q6 16 22 16t21 -16zM127 241h299q-98 276 -148 415q-28 -78 -80 -219.5t-71 -195.5zM218 831
q19 0 27 -15.5t0 -31.5t-27 -16t-26.5 16t0 31.5t26.5 15.5zM357 831q19 0 26.5 -15.5t0 -31.5t-26.5 -16t-27 16t0 31.5t27 15.5z" />
    <glyph glyph-name="Aring" unicode="&#xc5;" horiz-adv-x="591" 
d="M374 807q2 -39 -18.5 -67.5t-58.5 -35.5q-42 -8 -75.5 16t-37.5 66v4v4q1 40 21 67.5t59 32.5q42 6 75 -19.5t35 -67.5zM306 754q27 15 23 53q-3 26 -26 38t-47 1q-27 -13 -27 -56q1 -27 28 -38.5t49 2.5zM300 727q26 -72 114 -319t136 -382q5 -13 -4 -21t-21.5 -5.5
t-17.5 14.5q-9 24 -31 86.5t-34 95.5h-331q-52 -143 -67 -181q-4 -13 -16.5 -15t-21.5 6t-5 21q55 148 256 700q6 16 22 16t21 -16zM127 241h299q-98 276 -148 415q-28 -78 -80 -219.5t-71 -195.5z" />
    <glyph glyph-name="AE" unicode="&#xc6;" horiz-adv-x="1074" 
d="M569 -1q-9 0 -15.5 6.5t-6.5 15.5v695q0 9 6.5 15.5t15.5 6.5h444q21 0 21 -22t-21 -22h-421v-216h377q21 0 21 -22.5t-21 -22.5h-377v-389h421q21 0 21 -22.5t-21 -22.5h-444zM340 727q26 -72 114 -319t136 -382q5 -13 -4 -21t-21.5 -5.5t-17.5 14.5q-9 24 -31 86.5
t-34 95.5h-331q-52 -143 -67 -181q-4 -13 -16.5 -15t-21.5 6t-5 21q55 148 256 700q6 16 22 16t21 -16zM167 241h299q-98 276 -148 415q-28 -78 -80 -219.5t-71 -195.5z" />
    <glyph glyph-name="Ccedilla" unicode="&#xc7;" horiz-adv-x="673" 
d="M590 150q8 11 21 10t18.5 -10.5t-0.5 -21.5q-80 -120 -229 -130q-2 -51 -19 -80q-24 -43 -87 -45q-14 0 -19.5 11t0 22.5t19.5 11.5q57 1 61 79q-25 2 -49 6q-91 17 -155.5 82t-90 149.5t-18.5 178t49 167.5t112.5 119t153.5 46q183 2 272 -131q8 -11 1 -22t-19 -11
t-21 10q-49 73 -141 99.5t-174 -4.5q-88 -33 -138.5 -119.5t-52.5 -186.5q-2 -99 44.5 -188t131.5 -128q84 -40 181.5 -15.5t148.5 101.5z" />
    <glyph glyph-name="Egrave" unicode="&#xc8;" 
d="M307 789q12 -8 22.5 -1t10.5 19t-10 20q-58 38 -86 56q-12 8 -22.5 1t-10.5 -19t10 -21q13 -8 86 -55zM62 0q-9 0 -15.5 6.5t-6.5 15.5v695q0 9 6.5 15.5t15.5 6.5h444q21 0 21 -22t-21 -22h-421v-216h377q21 0 21 -22.5t-21 -22.5h-377v-389h421q21 0 21 -22.5
t-21 -22.5h-444z" />
    <glyph glyph-name="Eacute" unicode="&#xc9;" 
d="M62 0q-9 0 -15.5 6.5t-6.5 15.5v695q0 9 6.5 15.5t15.5 6.5h444q21 0 21 -22t-21 -22h-421v-216h377q21 0 21 -22.5t-21 -22.5h-377v-389h421q21 0 21 -22.5t-21 -22.5h-444zM306 797q-11 -8 -22 -1t-11 19t11 21q28 18 86 56q11 7 22 0t11 -18.5t-11 -20.5
q-45 -31 -86 -56z" />
    <glyph glyph-name="Ecircumflex" unicode="&#xca;" 
d="M62 0q-9 0 -15.5 6.5t-6.5 15.5v695q0 9 6.5 15.5t15.5 6.5h444q21 0 21 -22t-21 -22h-421v-216h377q21 0 21 -22.5t-21 -22.5h-377v-389h421q21 0 21 -22.5t-21 -22.5h-444zM301 880q14 -10 42 -28.5t42 -27.5q11 -8 10 -21t-10.5 -18.5t-21.5 0.5q-40 25 -73 49
q-13 -8 -38 -24.5t-37 -24.5t-22.5 -1t-10.5 19t10 21q8 5 39 25t47 31q12 7 23 0z" />
    <glyph glyph-name="Edieresis" unicode="&#xcb;" 
d="M62 0q-9 0 -15.5 6.5t-6.5 15.5v695q0 9 6.5 15.5t15.5 6.5h444q21 0 21 -22t-21 -22h-421v-216h377q21 0 21 -22.5t-21 -22.5h-377v-389h421q21 0 21 -22.5t-21 -22.5h-444zM218 855q19 0 27 -15.5t0 -31.5t-27 -16t-26.5 16t0 31.5t26.5 15.5zM357 855q19 0 26.5 -15.5
t0 -31.5t-26.5 -16t-27 16t0 31.5t27 15.5z" />
    <glyph glyph-name="Igrave" unicode="&#xcc;" horiz-adv-x="124" 
d="M84 21q0 -14 -11 -19.5t-22 0t-11 19.5v696q0 14 11 19.5t22 0t11 -19.5v-696zM50 796q12 -8 22.5 -1t10.5 19t-10 20q-58 38 -86 56q-12 8 -22.5 1t-10.5 -19t10 -21q13 -8 86 -55z" />
    <glyph glyph-name="Iacute" unicode="&#xcd;" horiz-adv-x="204" 
d="M124 21q0 -14 -11 -19.5t-22 0t-11 19.5v696q0 14 11 19.5t22 0t11 -19.5v-696zM120 797q-11 -8 -22 -1t-11 19t11 21q28 18 86 56q11 7 22 0t11 -18.5t-11 -20.5q-45 -31 -86 -56z" />
    <glyph glyph-name="Icircumflex" unicode="&#xce;" horiz-adv-x="244" 
d="M138 878q14 -10 42 -28.5t42 -27.5q11 -8 10 -21t-10.5 -18.5t-21.5 0.5q-40 25 -73 49q-12 -8 -37 -24.5t-38 -24.5q-12 -8 -22.5 -1t-10.5 19t10 21q8 5 39 25t47 31q12 7 23 0zM144 21q0 -14 -11 -19.5t-22 0t-11 19.5v696q0 14 11 19.5t22 0t11 -19.5v-696z" />
    <glyph glyph-name="Idieresis" unicode="&#xcf;" horiz-adv-x="244" 
d="M144 21q0 -14 -11 -19.5t-22 0t-11 19.5v696q0 14 11 19.5t22 0t11 -19.5v-696zM53 849q19 0 26.5 -15.5t0 -31t-26.5 -15.5t-26.5 15.5t0 31t26.5 15.5zM191 849q19 0 27 -15.5t0 -31t-27 -15.5t-26.5 15.5t0 31t26.5 15.5z" />
    <glyph glyph-name="Eth" unicode="&#xd0;" horiz-adv-x="575" 
d="M15 362q-14 0 -19.5 11t0 22.5t19.5 11.5h319q14 0 19.5 -11.5t0 -22.5t-19.5 -11h-319zM66 1q-9 0 -16 6.5t-7 15.5q0 116 -1.5 347.5t-1.5 347.5q0 9 6.5 15.5t15.5 6.5q23 0 65.5 1.5t72.5 2t70.5 -1t71.5 -8.5t63.5 -19.5t58 -35.5t43.5 -54q10 -18 16.5 -37.5
t8.5 -44t2.5 -39.5t0 -45.5t-0.5 -40.5v-206q-4 -94 -74.5 -152.5t-166.5 -59.5q-77 -1 -227 1zM255 695q-114 0 -170 1q0 -108 1.5 -325t1.5 -326q12 0 46 -1.5t51.5 -2t51.5 0t54 3t49.5 7.5t47 13.5t38.5 21.5t33 30.5t20.5 41.5t9.5 53v180q0 12 2 56t0.5 74t-10.5 55
q-42 118 -226 118z" />
    <glyph glyph-name="Ntilde" unicode="&#xd1;" horiz-adv-x="585" 
d="M501 729q0 21 22 21t22 -21v-707q0 -17 -16.5 -21.5t-24.5 9.5q-11 17 -31.5 48.5t-26.5 40.5q-121 185 -361 555v-632q0 -14 -11.5 -19.5t-22.5 0t-11 19.5v707q0 17 16.5 21t25.5 -10q6 -9 26.5 -40.5t31.5 -48.5q38 -58 165 -253t196 -301v632zM374 846q1 14 13 19.5
t22.5 0t9.5 -19.5q-2 -28 -19 -47.5t-45 -23.5q-23 -3 -44 9q-6 3 -16 11t-17 12.5t-16 7t-16 -3t-13 -18.5q-8 -19 -27 -9q-19 12 -12 32q11 26 34 38.5t49 3.5q5 -2 18 -10t24.5 -15t24 -11.5t21 1.5t9.5 23z" />
    <glyph glyph-name="Ograve" unicode="&#xd2;" horiz-adv-x="715" 
d="M335 793q12 -8 22.5 -1t10.5 19t-10 20q-58 38 -86 56q-12 8 -22.5 1t-10.5 -19t10 -21q13 -8 86 -55zM668 466q25 -134 -25.5 -261t-169.5 -181q-102 -42 -200 -9.5t-161 122.5q-66 96 -71 220t52 226q55 99 157 144t205 6q154 -58 211 -259v-2l1 -2l1 -2v-2zM494 87
q84 58 117.5 161.5t12.5 209.5q-25 90 -76.5 155.5t-133.5 85.5q-95 24 -178.5 -30t-122.5 -148q-39 -92 -24.5 -200t80.5 -184q63 -73 153.5 -88t171.5 38z" />
    <glyph glyph-name="Oacute" unicode="&#xd3;" horiz-adv-x="715" 
d="M668 466q25 -134 -25.5 -261t-169.5 -181q-102 -42 -200 -9.5t-161 122.5q-66 96 -71 220t52 226q55 99 157 144t205 6q154 -58 211 -259v-2l1 -2l1 -2v-2zM494 87q84 58 117.5 161.5t12.5 209.5q-25 90 -76.5 155.5t-133.5 85.5q-95 24 -178.5 -30t-122.5 -148
q-39 -92 -24.5 -200t80.5 -184q63 -73 153.5 -88t171.5 38zM355 797q-11 -8 -22 -1t-11 19t11 21q28 18 86 56q11 7 22 0t11 -18.5t-11 -20.5q-45 -31 -86 -56z" />
    <glyph glyph-name="Ocircumflex" unicode="&#xd4;" horiz-adv-x="715" 
d="M668 466q25 -134 -25.5 -261t-169.5 -181q-102 -42 -200 -9.5t-161 122.5q-66 96 -71 220t52 226q55 99 157 144t205 6q154 -58 211 -259v-2l1 -2l1 -2v-2zM494 87q84 58 117.5 161.5t12.5 209.5q-25 90 -76.5 155.5t-133.5 85.5q-95 24 -178.5 -30t-122.5 -148
q-39 -92 -24.5 -200t80.5 -184q63 -73 153.5 -88t171.5 38zM376 875q14 -9 42 -27.5t42 -28.5q11 -8 10 -21t-10.5 -18.5t-21.5 0.5q-40 25 -73 49q-13 -8 -38 -24.5t-37 -24.5t-22.5 -1t-10.5 19t10 21q8 5 39 25t47 31q12 7 23 0z" />
    <glyph glyph-name="Otilde" unicode="&#xd5;" horiz-adv-x="715" 
d="M668 466q25 -134 -25.5 -261t-169.5 -181q-102 -42 -200 -9.5t-161 122.5q-66 96 -71 220t52 226q55 99 157 144t205 6q154 -58 211 -259v-2l1 -2l1 -2v-2zM494 87q84 58 117.5 161.5t12.5 209.5q-25 90 -76.5 155.5t-133.5 85.5q-95 24 -178.5 -30t-122.5 -148
q-39 -92 -24.5 -200t80.5 -184q63 -73 153.5 -88t171.5 38zM433 846q1 14 13 19.5t22.5 0t9.5 -19.5q-2 -28 -19 -47.5t-45 -23.5q-23 -3 -44 9q-6 3 -16 11t-17 12.5t-16 7t-16 -3t-13 -18.5q-8 -19 -27 -9q-19 12 -12 32q11 26 34 38.5t49 3.5q5 -2 18 -10t24.5 -15
t24 -11.5t21 1.5t9.5 23z" />
    <glyph glyph-name="Odieresis" unicode="&#xd6;" horiz-adv-x="715" 
d="M668 466q25 -134 -25.5 -261t-169.5 -181q-102 -42 -200 -9.5t-161 122.5q-66 96 -71 220t52 226q55 99 157 144t205 6q154 -58 211 -259v-2l1 -2l1 -2v-2zM494 87q84 58 117.5 161.5t12.5 209.5q-25 90 -76.5 155.5t-133.5 85.5q-95 24 -178.5 -30t-122.5 -148
q-39 -92 -24.5 -200t80.5 -184q63 -73 153.5 -88t171.5 38zM297 853q19 0 27 -15.5t0 -31.5t-27 -16t-26.5 16t0 31.5t26.5 15.5zM436 853q19 0 26.5 -15.5t0 -31.5t-26.5 -16t-27 16t0 31.5t27 15.5z" />
    <glyph glyph-name="Oslash" unicode="&#xd8;" horiz-adv-x="715" 
d="M243 7q-5 -13 -18 -15t-22 6t-4 21q22 60 33 91q39 106 115.5 317.5t115.5 317.5q5 13 17.5 15.5t21.5 -6t4 -21.5l-33 -90q-38 -106 -115 -318t-115 -318zM668 466q25 -134 -25.5 -261t-169.5 -181q-102 -42 -200 -9.5t-161 122.5q-66 96 -71 220t52 226q55 99 157 144
t205 6q154 -58 211 -259v-2l1 -2l1 -2v-2zM494 87q84 58 117.5 161.5t12.5 209.5q-25 90 -76.5 155.5t-133.5 85.5q-95 24 -178.5 -30t-122.5 -148q-39 -92 -24.5 -200t80.5 -184q63 -73 153.5 -88t171.5 38z" />
    <glyph glyph-name="Ugrave" unicode="&#xd9;" horiz-adv-x="579" 
d="M85 423v-149q0 -82 11 -109q21 -54 68.5 -85.5t101.5 -33.5t104.5 15t85 61.5t36.5 103.5q2 73 2 155t-1 182t-1 154q0 14 11 19.5t22.5 0t11.5 -19.5v-336q0 -12 1 -58.5t0 -67t-5.5 -56.5t-16.5 -63t-32 -50q-55 -64 -141.5 -81.5t-166.5 19t-116 114.5q-20 42 -20 126
v168v285q0 14 11 19.5t22.5 0t11.5 -19.5v-294zM294 779q12 -8 22.5 -1t10.5 19t-10 20q-58 38 -86 56q-12 8 -22.5 1t-10.5 -19t10 -21q13 -8 86 -55z" />
    <glyph glyph-name="Uacute" unicode="&#xda;" horiz-adv-x="579" 
d="M85 423v-149q0 -82 11 -109q21 -54 68.5 -85.5t101.5 -33.5t104.5 15t85 61.5t36.5 103.5q2 73 2 155t-1 182t-1 154q0 14 11 19.5t22.5 0t11.5 -19.5v-336q0 -12 1 -58.5t0 -67t-5.5 -56.5t-16.5 -63t-32 -50q-55 -64 -141.5 -81.5t-166.5 19t-116 114.5q-20 42 -20 126
v168v285q0 14 11 19.5t22.5 0t11.5 -19.5v-294zM298 797q-11 -8 -22 -1t-11 19t11 21q28 18 86 56q11 7 22 0t11 -18.5t-11 -20.5q-45 -31 -86 -56z" />
    <glyph glyph-name="Ucircumflex" unicode="&#xdb;" horiz-adv-x="579" 
d="M85 423v-149q0 -82 11 -109q21 -54 68.5 -85.5t101.5 -33.5t104.5 15t85 61.5t36.5 103.5q2 73 2 155t-1 182t-1 154q0 14 11 19.5t22.5 0t11.5 -19.5v-336q0 -12 1 -58.5t0 -67t-5.5 -56.5t-16.5 -63t-32 -50q-55 -64 -141.5 -81.5t-166.5 19t-116 114.5q-20 42 -20 126
v168v285q0 14 11 19.5t22.5 0t11.5 -19.5v-294zM307 854q14 -9 42 -27.5t42 -28.5q11 -8 10 -21t-10.5 -18.5t-21.5 0.5q-40 25 -73 49q-13 -8 -38 -24.5t-37 -24.5t-22.5 -1t-10.5 19t10 21q8 5 39 25t47 31q12 7 23 0z" />
    <glyph glyph-name="Udieresis" unicode="&#xdc;" horiz-adv-x="579" 
d="M85 423v-149q0 -82 11 -109q21 -54 68.5 -85.5t101.5 -33.5t104.5 15t85 61.5t36.5 103.5q2 73 2 155t-1 182t-1 154q0 14 11 19.5t22.5 0t11.5 -19.5v-336q0 -12 1 -58.5t0 -67t-5.5 -56.5t-16.5 -63t-32 -50q-55 -64 -141.5 -81.5t-166.5 19t-116 114.5q-20 42 -20 126
v168v285q0 14 11 19.5t22.5 0t11.5 -19.5v-294zM225 831q19 0 27 -15.5t0 -31.5t-27 -16t-26.5 16t0 31.5t26.5 15.5zM364 831q19 0 26.5 -15.5t0 -31.5t-26.5 -16t-27 16t0 31.5t27 15.5z" />
    <glyph glyph-name="Yacute" unicode="&#xdd;" horiz-adv-x="633" 
d="M550 733q8 10 21.5 8.5t18.5 -10.5t-2 -21q-20 -27 -251 -332v-356q0 -14 -11 -19.5t-22 0t-11 19.5v352l-249 336q-8 11 -1 21.5t19 11t21 -9.5q39 -52 116 -156.5t115 -156.5q43 58 123.5 164.5t112.5 148.5zM331 802q-11 -8 -22 -1t-11 19t11 21q28 18 86 56
q11 7 22 0t11 -18.5t-11 -20.5q-45 -31 -86 -56z" />
    <glyph glyph-name="Thorn" unicode="&#xde;" horiz-adv-x="551" 
d="M467 581q40 -46 44 -113.5t-31 -118.5q-59 -86 -209 -86h-184h-1q2 -224 2 -241q0 -14 -11 -19.5t-22.5 0t-11.5 19.5q0 59 -1.5 343.5t-1.5 375.5q0 14 11 19.5t22.5 -0.5t11.5 -19v-91h182q66 0 115 -14t85 -55zM282 308q84 0 136.5 43t46.5 123q-4 50 -39.5 85
t-85.5 44q-11 2 -88 2h-167q0 -198 1 -297h1h97q98 -1 98 0z" />
    <glyph glyph-name="germandbls" unicode="&#xdf;" horiz-adv-x="633" 
d="M61 -1q-14 0 -19.5 11t0.5 22.5t19 11.5h25l-3 216q-1 46 -2 137.5t-1 137.5q-1 71 29 122.5t94 73.5q44 17 94.5 14.5t94.5 -17t77 -50t41 -85.5q7 -49 -9.5 -95.5t-52.5 -78.5q73 -17 108 -68q28 -41 35 -100t-8 -106q-21 -76 -87 -115.5t-144 -32t-136 59.5
q-10 9 -5.5 21t15.5 15.5t22 -4.5q33 -30 84 -41t97 -2q44 9 74 43t39 80q10 36 4 82.5t-29 76.5q-37 51 -139 53q-12 0 -18 9.5t-2.5 20.5t14.5 14q47 15 74 59.5t21.5 95.5t-44.5 83q-46 37 -115 40t-124 -32.5t-59 -100.5q-2 -9 -0.5 -73t1.5 -73q1 -67 2.5 -201.5
t2.5 -201.5q0 -9 -7 -15.5t-16 -6.5h-47z" />
    <glyph glyph-name="agrave" unicode="&#xe0;" horiz-adv-x="631" 
d="M299 773q12 -8 22.5 -1t10.5 19t-10 20q-58 38 -86 56q-12 8 -22.5 1t-10.5 -19t10 -21q13 -8 86 -55zM340 727q26 -72 114 -319t136 -382q5 -13 -4 -21t-21.5 -5.5t-17.5 14.5q-9 24 -31 86.5t-34 95.5h-331q-52 -143 -67 -181q-4 -13 -16.5 -15t-21.5 6t-5 21
q55 148 256 700q6 16 22 16t21 -16zM167 241h299q-98 276 -148 415q-28 -78 -80 -219.5t-71 -195.5z" />
    <glyph glyph-name="aacute" unicode="&#xe1;" horiz-adv-x="631" 
d="M340 727q26 -72 114 -319t136 -382q5 -13 -4 -21t-21.5 -5.5t-17.5 14.5q-9 24 -31 86.5t-34 95.5h-331q-52 -143 -67 -181q-4 -13 -16.5 -15t-21.5 6t-5 21q55 148 256 700q6 16 22 16t21 -16zM167 241h299q-98 276 -148 415q-28 -78 -80 -219.5t-71 -195.5zM330 797
q-11 -8 -22 -1t-11 19t11 21q28 18 86 56q11 7 22 0t11 -18.5t-11 -20.5q-45 -31 -86 -56z" />
    <glyph glyph-name="acircumflex" unicode="&#xe2;" horiz-adv-x="591" 
d="M290 854q14 -9 42 -27.5t42 -28.5q11 -8 10 -21t-10.5 -18.5t-21.5 0.5q-40 25 -73 49q-12 -8 -37 -24.5t-38 -24.5q-12 -8 -22.5 -1t-10.5 19t10 21q8 5 39 25t47 31q12 7 23 0zM300 727q26 -72 114 -319t136 -382q5 -13 -4 -21t-21.5 -5.5t-17.5 14.5q-9 24 -31 86.5
t-34 95.5h-331q-52 -143 -67 -181q-4 -13 -16.5 -15t-21.5 6t-5 21q55 148 256 700q6 16 22 16t21 -16zM127 241h299q-98 276 -148 415q-28 -78 -80 -219.5t-71 -195.5z" />
    <glyph glyph-name="atilde" unicode="&#xe3;" horiz-adv-x="631" 
d="M340 727q26 -72 114 -319t136 -382q5 -13 -4 -21t-21.5 -5.5t-17.5 14.5q-9 24 -31 86.5t-34 95.5h-331q-52 -143 -67 -181q-4 -13 -16.5 -15t-21.5 6t-5 21q55 148 256 700q6 16 22 16t21 -16zM167 241h299q-98 276 -148 415q-28 -78 -80 -219.5t-71 -195.5zM385 846
q1 14 13 19.5t22.5 0t9.5 -19.5q-2 -28 -19 -47.5t-45 -23.5q-23 -3 -44 9q-6 3 -16 11t-17 12.5t-16 7t-16 -3t-13 -18.5q-8 -19 -27 -9q-19 12 -12 32q11 26 34 38.5t49 3.5q5 -2 18 -10t24.5 -15t24 -11.5t21 1.5t9.5 23z" />
    <glyph glyph-name="adieresis" unicode="&#xe4;" horiz-adv-x="591" 
d="M300 727q26 -72 114 -319t136 -382q5 -13 -4 -21t-21.5 -5.5t-17.5 14.5q-9 24 -31 86.5t-34 95.5h-331q-52 -143 -67 -181q-4 -13 -16.5 -15t-21.5 6t-5 21q55 148 256 700q6 16 22 16t21 -16zM127 241h299q-98 276 -148 415q-28 -78 -80 -219.5t-71 -195.5zM214 831
q19 0 27 -15.5t0 -31.5t-27 -16t-26.5 16t0 31.5t26.5 15.5zM353 831q19 0 26.5 -15.5t0 -31.5t-26.5 -16t-27 16t0 31.5t27 15.5z" />
    <glyph glyph-name="aring" unicode="&#xe5;" horiz-adv-x="591" 
d="M376 803q2 -39 -18.5 -67.5t-58.5 -35.5q-42 -8 -75.5 16t-37.5 66v4v4q1 40 21 67.5t59 32.5q42 6 75 -19.5t35 -67.5zM308 750q27 15 23 53q-3 26 -26 38t-47 1q-27 -13 -27 -56q1 -27 28 -38.5t49 2.5zM300 727q26 -72 114 -319t136 -382q5 -13 -4 -21t-21.5 -5.5
t-17.5 14.5q-9 24 -31 86.5t-34 95.5h-331q-52 -143 -67 -181q-4 -13 -16.5 -15t-21.5 6t-5 21q55 148 256 700q6 16 22 16t21 -16zM127 241h299q-98 276 -148 415q-28 -78 -80 -219.5t-71 -195.5z" />
    <glyph glyph-name="ae" unicode="&#xe6;" horiz-adv-x="1074" 
d="M569 -1q-9 0 -15.5 6.5t-6.5 15.5v695q0 9 6.5 15.5t15.5 6.5h444q21 0 21 -22t-21 -22h-421v-216h377q21 0 21 -22.5t-21 -22.5h-377v-389h421q21 0 21 -22.5t-21 -22.5h-444zM340 727q26 -72 114 -319t136 -382q5 -13 -4 -21t-21.5 -5.5t-17.5 14.5q-9 24 -31 86.5
t-34 95.5h-331q-52 -143 -67 -181q-4 -13 -16.5 -15t-21.5 6t-5 21q55 148 256 700q6 16 22 16t21 -16zM167 241h299q-98 276 -148 415q-28 -78 -80 -219.5t-71 -195.5z" />
    <glyph glyph-name="ccedilla" unicode="&#xe7;" horiz-adv-x="673" 
d="M590 150q8 11 21 10t18.5 -10.5t-0.5 -21.5q-80 -120 -229 -130q-2 -51 -19 -80q-24 -43 -87 -45q-14 0 -19.5 11t0 22.5t19.5 11.5q57 1 61 79q-25 2 -49 6q-91 17 -155.5 82t-90 149.5t-18.5 178t49 167.5t112.5 119t153.5 46q183 2 272 -131q8 -11 1 -22t-19 -11
t-21 10q-49 73 -141 99.5t-174 -4.5q-88 -33 -138.5 -119.5t-52.5 -186.5q-2 -99 44.5 -188t131.5 -128q84 -40 181.5 -15.5t148.5 101.5z" />
    <glyph glyph-name="egrave" unicode="&#xe8;" 
d="M307 789q12 -8 22.5 -1t10.5 19t-10 20q-58 38 -86 56q-12 8 -22.5 1t-10.5 -19t10 -21q13 -8 86 -55zM62 0q-9 0 -15.5 6.5t-6.5 15.5v695q0 9 6.5 15.5t15.5 6.5h444q21 0 21 -22t-21 -22h-421v-216h377q21 0 21 -22.5t-21 -22.5h-377v-389h421q21 0 21 -22.5
t-21 -22.5h-444z" />
    <glyph glyph-name="eacute" unicode="&#xe9;" 
d="M62 0q-9 0 -15.5 6.5t-6.5 15.5v695q0 9 6.5 15.5t15.5 6.5h444q21 0 21 -22t-21 -22h-421v-216h377q21 0 21 -22.5t-21 -22.5h-377v-389h421q21 0 21 -22.5t-21 -22.5h-444zM306 797q-11 -8 -22 -1t-11 19t11 21q28 18 86 56q11 7 22 0t11 -18.5t-11 -20.5
q-45 -31 -86 -56z" />
    <glyph glyph-name="ecircumflex" unicode="&#xea;" 
d="M62 0q-9 0 -15.5 6.5t-6.5 15.5v695q0 9 6.5 15.5t15.5 6.5h444q21 0 21 -22t-21 -22h-421v-216h377q21 0 21 -22.5t-21 -22.5h-377v-389h421q21 0 21 -22.5t-21 -22.5h-444zM301 880q14 -10 42 -28.5t42 -27.5q11 -8 10 -21t-10.5 -18.5t-21.5 0.5q-40 25 -73 49
q-13 -8 -38 -24.5t-37 -24.5t-22.5 -1t-10.5 19t10 21q8 5 39 25t47 31q12 7 23 0z" />
    <glyph glyph-name="edieresis" unicode="&#xeb;" 
d="M62 0q-9 0 -15.5 6.5t-6.5 15.5v695q0 9 6.5 15.5t15.5 6.5h444q21 0 21 -22t-21 -22h-421v-216h377q21 0 21 -22.5t-21 -22.5h-377v-389h421q21 0 21 -22.5t-21 -22.5h-444zM218 867q19 0 27 -15.5t0 -31.5t-27 -16t-26.5 16t0 31.5t26.5 15.5zM357 867q19 0 26.5 -15.5
t0 -31.5t-26.5 -16t-27 16t0 31.5t27 15.5z" />
    <glyph glyph-name="igrave" unicode="&#xec;" horiz-adv-x="124" 
d="M84 21q0 -14 -11 -19.5t-22 0t-11 19.5v696q0 14 11 19.5t22 0t11 -19.5v-696zM50 796q12 -8 22.5 -1t10.5 19t-10 20q-58 38 -86 56q-12 8 -22.5 1t-10.5 -19t10 -21q13 -8 86 -55z" />
    <glyph glyph-name="iacute" unicode="&#xed;" horiz-adv-x="204" 
d="M124 21q0 -14 -11 -19.5t-22 0t-11 19.5v696q0 14 11 19.5t22 0t11 -19.5v-696zM120 797q-11 -8 -22 -1t-11 19t11 21q28 18 86 56q11 7 22 0t11 -18.5t-11 -20.5q-45 -31 -86 -56z" />
    <glyph glyph-name="icircumflex" unicode="&#xee;" horiz-adv-x="293" 
d="M159 878q14 -10 42 -28.5t42 -27.5q11 -8 10 -21t-10.5 -18.5t-21.5 0.5q-40 25 -73 49q-13 -8 -38 -24.5t-37 -24.5t-22.5 -1t-10.5 19t10 21q8 5 39 25t47 31q12 7 23 0zM165 21q0 -14 -11 -19.5t-22 0t-11 19.5v696q0 14 11 19.5t22 0t11 -19.5v-696z" />
    <glyph glyph-name="idieresis" unicode="&#xef;" horiz-adv-x="279" 
d="M161 21q0 -14 -11 -19.5t-22 0t-11 19.5v696q0 14 11 19.5t22 0t11 -19.5v-696zM70 849q19 0 26.5 -15.5t0 -31t-26.5 -15.5t-26.5 15.5t0 31t26.5 15.5zM208 849q19 0 27 -15.5t0 -31t-27 -15.5t-26.5 15.5t0 31t26.5 15.5z" />
    <glyph glyph-name="eth" unicode="&#xf0;" horiz-adv-x="622" 
d="M62 362q-14 0 -19.5 11t0 22.5t19.5 11.5h319q14 0 19.5 -11.5t0 -22.5t-19.5 -11h-319zM113 1q-9 0 -16 6.5t-7 15.5q0 116 -1.5 347.5t-1.5 347.5q0 9 6.5 15.5t15.5 6.5q23 0 65.5 1.5t72.5 2t70.5 -1t71.5 -8.5t63.5 -19.5t58 -35.5t43.5 -54q10 -18 16.5 -37.5
t8.5 -44t2.5 -39.5t0 -45.5t-0.5 -40.5v-206q-4 -94 -74.5 -152.5t-166.5 -59.5q-77 -1 -227 1zM302 695q-114 0 -170 1q0 -108 1.5 -325t1.5 -326q12 0 46 -1.5t51.5 -2t51.5 0t54 3t49.5 7.5t47 13.5t38.5 21.5t33 30.5t20.5 41.5t9.5 53v180q0 12 2 56t0.5 74t-10.5 55
q-42 118 -226 118z" />
    <glyph glyph-name="ntilde" unicode="&#xf1;" horiz-adv-x="585" 
d="M501 729q0 21 22 21t22 -21v-707q0 -17 -16.5 -21.5t-24.5 9.5q-11 17 -31.5 48.5t-26.5 40.5q-121 185 -361 555v-632q0 -14 -11.5 -19.5t-22.5 0t-11 19.5v707q0 17 16.5 21t25.5 -10q6 -9 26.5 -40.5t31.5 -48.5q38 -58 165 -253t196 -301v632zM374 846q1 14 13 19.5
t22.5 0t9.5 -19.5q-2 -28 -19 -47.5t-45 -23.5q-23 -3 -44 9q-6 3 -16 11t-17 12.5t-16 7t-16 -3t-13 -18.5q-8 -19 -27 -9q-19 12 -12 32q11 26 34 38.5t49 3.5q5 -2 18 -10t24.5 -15t24 -11.5t21 1.5t9.5 23z" />
    <glyph glyph-name="ograve" unicode="&#xf2;" horiz-adv-x="715" 
d="M335 793q12 -8 22.5 -1t10.5 19t-10 20q-58 38 -86 56q-12 8 -22.5 1t-10.5 -19t10 -21q13 -8 86 -55zM668 466q25 -134 -25.5 -261t-169.5 -181q-102 -42 -200 -9.5t-161 122.5q-66 96 -71 220t52 226q55 99 157 144t205 6q154 -58 211 -259v-2l1 -2l1 -2v-2zM494 87
q84 58 117.5 161.5t12.5 209.5q-25 90 -76.5 155.5t-133.5 85.5q-95 24 -178.5 -30t-122.5 -148q-39 -92 -24.5 -200t80.5 -184q63 -73 153.5 -88t171.5 38z" />
    <glyph glyph-name="oacute" unicode="&#xf3;" horiz-adv-x="715" 
d="M668 466q25 -134 -25.5 -261t-169.5 -181q-102 -42 -200 -9.5t-161 122.5q-66 96 -71 220t52 226q55 99 157 144t205 6q154 -58 211 -259v-2l1 -2l1 -2v-2zM494 87q84 58 117.5 161.5t12.5 209.5q-25 90 -76.5 155.5t-133.5 85.5q-95 24 -178.5 -30t-122.5 -148
q-39 -92 -24.5 -200t80.5 -184q63 -73 153.5 -88t171.5 38zM355 797q-11 -8 -22 -1t-11 19t11 21q28 18 86 56q11 7 22 0t11 -18.5t-11 -20.5q-45 -31 -86 -56z" />
    <glyph glyph-name="ocircumflex" unicode="&#xf4;" horiz-adv-x="715" 
d="M668 466q25 -134 -25.5 -261t-169.5 -181q-102 -42 -200 -9.5t-161 122.5q-66 96 -71 220t52 226q55 99 157 144t205 6q154 -58 211 -259v-2l1 -2l1 -2v-2zM494 87q84 58 117.5 161.5t12.5 209.5q-25 90 -76.5 155.5t-133.5 85.5q-95 24 -178.5 -30t-122.5 -148
q-39 -92 -24.5 -200t80.5 -184q63 -73 153.5 -88t171.5 38zM376 875q14 -9 42 -27.5t42 -28.5q11 -8 10 -21t-10.5 -18.5t-21.5 0.5q-40 25 -73 49q-13 -8 -38 -24.5t-37 -24.5t-22.5 -1t-10.5 19t10 21q8 5 39 25t47 31q12 7 23 0z" />
    <glyph glyph-name="otilde" unicode="&#xf5;" horiz-adv-x="715" 
d="M668 466q25 -134 -25.5 -261t-169.5 -181q-102 -42 -200 -9.5t-161 122.5q-66 96 -71 220t52 226q55 99 157 144t205 6q154 -58 211 -259v-2l1 -2l1 -2v-2zM494 87q84 58 117.5 161.5t12.5 209.5q-25 90 -76.5 155.5t-133.5 85.5q-95 24 -178.5 -30t-122.5 -148
q-39 -92 -24.5 -200t80.5 -184q63 -73 153.5 -88t171.5 38zM433 846q1 14 13 19.5t22.5 0t9.5 -19.5q-2 -28 -19 -47.5t-45 -23.5q-23 -3 -44 9q-6 3 -16 11t-17 12.5t-16 7t-16 -3t-13 -18.5q-8 -19 -27 -9q-19 12 -12 32q11 26 34 38.5t49 3.5q5 -2 18 -10t24.5 -15
t24 -11.5t21 1.5t9.5 23z" />
    <glyph glyph-name="odieresis" unicode="&#xf6;" horiz-adv-x="715" 
d="M668 466q25 -134 -25.5 -261t-169.5 -181q-102 -42 -200 -9.5t-161 122.5q-66 96 -71 220t52 226q55 99 157 144t205 6q154 -58 211 -259v-2l1 -2l1 -2v-2zM494 87q84 58 117.5 161.5t12.5 209.5q-25 90 -76.5 155.5t-133.5 85.5q-95 24 -178.5 -30t-122.5 -148
q-39 -92 -24.5 -200t80.5 -184q63 -73 153.5 -88t171.5 38zM297 856q19 0 27 -16t0 -31.5t-27 -15.5t-26.5 15.5t0 31.5t26.5 16zM436 856q19 0 26.5 -16t0 -31.5t-26.5 -15.5t-27 15.5t0 31.5t27 16z" />
    <glyph glyph-name="divide" unicode="&#xf7;" horiz-adv-x="443" 
d="M62 323q-14 0 -19.5 11.5t0 22.5t19.5 11h319q14 0 19.5 -11t0 -22.5t-19.5 -11.5h-319zM222 427q-24 0 -34 20t0 40t34 20t34 -20t0 -40t-34 -20zM222 184q-24 0 -34 20t0 40t34 20t34 -20t0 -40t-34 -20z" />
    <glyph glyph-name="oslash" unicode="&#xf8;" horiz-adv-x="715" 
d="M243 7q-5 -13 -18 -15t-22 6t-4 21q22 60 33 91q39 106 115.5 317.5t115.5 317.5q5 13 17.5 15.5t21.5 -6t4 -21.5l-33 -90q-38 -106 -115 -318t-115 -318zM668 466q25 -134 -25.5 -261t-169.5 -181q-102 -42 -200 -9.5t-161 122.5q-66 96 -71 220t52 226q55 99 157 144
t205 6q154 -58 211 -259v-2l1 -2l1 -2v-2zM494 87q84 58 117.5 161.5t12.5 209.5q-25 90 -76.5 155.5t-133.5 85.5q-95 24 -178.5 -30t-122.5 -148q-39 -92 -24.5 -200t80.5 -184q63 -73 153.5 -88t171.5 38z" />
    <glyph glyph-name="ugrave" unicode="&#xf9;" horiz-adv-x="579" 
d="M85 423v-149q0 -82 11 -109q21 -54 68.5 -85.5t101.5 -33.5t104.5 15t85 61.5t36.5 103.5q2 73 2 155t-1 182t-1 154q0 14 11 19.5t22.5 0t11.5 -19.5v-336q0 -12 1 -58.5t0 -67t-5.5 -56.5t-16.5 -63t-32 -50q-55 -64 -141.5 -81.5t-166.5 19t-116 114.5q-20 42 -20 126
v168v285q0 14 11 19.5t22.5 0t11.5 -19.5v-294zM294 779q12 -8 22.5 -1t10.5 19t-10 20q-58 38 -86 56q-12 8 -22.5 1t-10.5 -19t10 -21q13 -8 86 -55z" />
    <glyph glyph-name="uacute" unicode="&#xfa;" horiz-adv-x="579" 
d="M85 423v-149q0 -82 11 -109q21 -54 68.5 -85.5t101.5 -33.5t104.5 15t85 61.5t36.5 103.5q2 73 2 155t-1 182t-1 154q0 14 11 19.5t22.5 0t11.5 -19.5v-336q0 -12 1 -58.5t0 -67t-5.5 -56.5t-16.5 -63t-32 -50q-55 -64 -141.5 -81.5t-166.5 19t-116 114.5q-20 42 -20 126
v168v285q0 14 11 19.5t22.5 0t11.5 -19.5v-294zM298 797q-11 -8 -22 -1t-11 19t11 21q28 18 86 56q11 7 22 0t11 -18.5t-11 -20.5q-45 -31 -86 -56z" />
    <glyph glyph-name="ucircumflex" unicode="&#xfb;" horiz-adv-x="579" 
d="M85 423v-149q0 -82 11 -109q21 -54 68.5 -85.5t101.5 -33.5t104.5 15t85 61.5t36.5 103.5q2 73 2 155t-1 182t-1 154q0 14 11 19.5t22.5 0t11.5 -19.5v-336q0 -12 1 -58.5t0 -67t-5.5 -56.5t-16.5 -63t-32 -50q-55 -64 -141.5 -81.5t-166.5 19t-116 114.5q-20 42 -20 126
v168v285q0 14 11 19.5t22.5 0t11.5 -19.5v-294zM304 862q14 -9 42 -27.5t42 -28.5q11 -8 10 -21t-10.5 -18.5t-21.5 0.5q-40 25 -73 49q-12 -8 -37 -24.5t-38 -24.5q-12 -8 -22.5 -1t-10.5 19t10 21q8 5 39 25t47 31q12 7 23 0z" />
    <glyph glyph-name="udieresis" unicode="&#xfc;" horiz-adv-x="579" 
d="M85 423v-149q0 -82 11 -109q21 -54 68.5 -85.5t101.5 -33.5t104.5 15t85 61.5t36.5 103.5q2 73 2 155t-1 182t-1 154q0 14 11 19.5t22.5 0t11.5 -19.5v-336q0 -12 1 -58.5t0 -67t-5.5 -56.5t-16.5 -63t-32 -50q-55 -64 -141.5 -81.5t-166.5 19t-116 114.5q-20 42 -20 126
v168v285q0 14 11 19.5t22.5 0t11.5 -19.5v-294zM222 839q19 0 27 -15.5t0 -31.5t-27 -16t-26.5 16t0 31.5t26.5 15.5zM361 839q19 0 26.5 -15.5t0 -31.5t-26.5 -16t-27 16t0 31.5t27 15.5z" />
    <glyph glyph-name="yacute" unicode="&#xfd;" horiz-adv-x="633" 
d="M550 733q8 10 21.5 8.5t18.5 -10.5t-2 -21q-20 -27 -251 -332v-356q0 -14 -11 -19.5t-22 0t-11 19.5v352l-249 336q-8 11 -1 21.5t19 11t21 -9.5q39 -52 116 -156.5t115 -156.5q43 58 123.5 164.5t112.5 148.5zM325 764q-11 -8 -22 -1t-11 19t11 21q28 18 86 56
q11 7 22 0t11 -18.5t-11 -20.5q-45 -31 -86 -56z" />
    <glyph glyph-name="thorn" unicode="&#xfe;" horiz-adv-x="551" 
d="M467 581q40 -46 44 -113.5t-31 -118.5q-59 -86 -209 -86h-184h-1q2 -224 2 -241q0 -14 -11 -19.5t-22.5 0t-11.5 19.5q0 59 -1.5 343.5t-1.5 375.5q0 14 11 19.5t22.5 -0.5t11.5 -19v-91h182q66 0 115 -14t85 -55zM282 308q84 0 136.5 43t46.5 123q-4 50 -39.5 85
t-85.5 44q-11 2 -88 2h-167q0 -198 1 -297h1h97q98 -1 98 0z" />
    <glyph glyph-name="ydieresis" unicode="&#xff;" horiz-adv-x="633" 
d="M550 733q8 10 21.5 8.5t18.5 -10.5t-2 -21q-20 -27 -251 -332v-356q0 -14 -11 -19.5t-22 0t-11 19.5v352l-249 336q-8 11 -1 21.5t19 11t21 -9.5q39 -52 116 -156.5t115 -156.5q43 58 123.5 164.5t112.5 148.5zM248 831q19 0 27 -15.5t0 -31.5t-27 -16t-26.5 16t0 31.5
t26.5 15.5zM387 831q19 0 26.5 -15.5t0 -31.5t-26.5 -16t-27 16t0 31.5t27 15.5z" />
    <glyph glyph-name="Amacron" unicode="&#x100;" horiz-adv-x="591" 
d="M300 727q26 -72 114 -319t136 -382q5 -13 -4 -21t-21.5 -5.5t-17.5 14.5q-9 24 -31 86.5t-34 95.5h-331q-52 -143 -67 -181q-4 -13 -16.5 -15t-21.5 6t-5 21q55 148 256 700q6 16 22 16t21 -16zM127 241h299q-98 276 -148 415q-28 -78 -80 -219.5t-71 -195.5zM152 774
q-14 0 -19.5 11t0 22.5t19.5 11.5h258q14 0 19.5 -11.5t0 -22.5t-19.5 -11h-258z" />
    <glyph glyph-name="amacron" unicode="&#x101;" horiz-adv-x="591" 
d="M300 727q26 -72 114 -319t136 -382q5 -13 -4 -21t-21.5 -5.5t-17.5 14.5q-9 24 -31 86.5t-34 95.5h-331q-52 -143 -67 -181q-4 -13 -16.5 -15t-21.5 6t-5 21q55 148 256 700q6 16 22 16t21 -16zM127 241h299q-98 276 -148 415q-28 -78 -80 -219.5t-71 -195.5zM148 774
q-14 0 -19.5 11t0 22.5t19.5 11.5h258q14 0 19.5 -11.5t0 -22.5t-19.5 -11h-258z" />
    <glyph glyph-name="Abreve" unicode="&#x102;" horiz-adv-x="591" 
d="M300 727q26 -72 114 -319t136 -382q5 -13 -4 -21t-21.5 -5.5t-17.5 14.5q-9 24 -31 86.5t-34 95.5h-331q-52 -143 -67 -181q-4 -13 -16.5 -15t-21.5 6t-5 21q55 148 256 700q6 16 22 16t21 -16zM127 241h299q-98 276 -148 415q-28 -78 -80 -219.5t-71 -195.5zM348 833
q1 13 12 18.5t21.5 0t9.5 -18.5q-2 -36 -34.5 -57t-70.5 -21t-70 20.5t-33 57.5q0 13 10.5 18.5t21.5 0t11 -18.5l1 -2q2 -9 5 -12q13 -18 54 -18q44 0 57 20q5 7 5 12z" />
    <glyph glyph-name="abreve" unicode="&#x103;" horiz-adv-x="591" 
d="M300 727q26 -72 114 -319t136 -382q5 -13 -4 -21t-21.5 -5.5t-17.5 14.5q-9 24 -31 86.5t-34 95.5h-331q-52 -143 -67 -181q-4 -13 -16.5 -15t-21.5 6t-5 21q55 148 256 700q6 16 22 16t21 -16zM127 241h299q-98 276 -148 415q-28 -78 -80 -219.5t-71 -195.5zM344 833
q1 13 12 18.5t21.5 0t9.5 -18.5q-2 -36 -34.5 -57t-70.5 -21t-70 20.5t-33 57.5q0 13 10.5 18.5t21.5 0t11 -18.5l1 -2q2 -9 5 -12q14 -18 54 -18q44 0 57 20q5 7 5 12z" />
    <glyph glyph-name="Aogonek" unicode="&#x104;" horiz-adv-x="591" 
d="M572 65q-20 -18 -19.5 -40.5t9.5 -37t28 -38.5q9 -10 4 -22t-16 -14t-22 7q-44 52 -50 87q-10 50 36 91q10 9 22 4.5t14.5 -16t-6.5 -21.5zM300 727q26 -72 114 -319t136 -382q5 -13 -4 -21t-21.5 -5.5t-17.5 14.5q-9 24 -31 86.5t-34 95.5h-331q-52 -143 -67 -181
q-4 -13 -16.5 -15t-21.5 6t-5 21q55 148 256 700q6 16 22 16t21 -16zM127 241h299q-98 276 -148 415q-28 -78 -80 -219.5t-71 -195.5z" />
    <glyph glyph-name="aogonek" unicode="&#x105;" horiz-adv-x="591" 
d="M572 65q-20 -18 -19.5 -40.5t9.5 -37t28 -38.5q9 -10 4 -22t-16 -14t-22 7q-44 52 -50 87q-10 50 36 91q10 9 22 4.5t14.5 -16t-6.5 -21.5zM300 727q26 -72 114 -319t136 -382q5 -13 -4 -21t-21.5 -5.5t-17.5 14.5q-9 24 -31 86.5t-34 95.5h-331q-52 -143 -67 -181
q-4 -13 -16.5 -15t-21.5 6t-5 21q55 148 256 700q6 16 22 16t21 -16zM127 241h299q-98 276 -148 415q-28 -78 -80 -219.5t-71 -195.5z" />
    <glyph glyph-name="Cacute" unicode="&#x106;" horiz-adv-x="673" 
d="M305 6q-90 17 -154.5 81.5t-90 149t-18.5 178t49 167.5q41 74 112 119.5t153 46.5q183 2 272 -132q8 -11 1.5 -21.5t-18.5 -10.5t-21 10q-50 73 -141 99.5t-174 -5.5q-89 -32 -139.5 -118.5t-52.5 -186.5q-2 -99 45 -188t132 -128q84 -40 181 -15.5t149 101.5q8 11 21 10
t18.5 -10.5t-0.5 -22.5q-53 -79 -140 -110.5t-184 -13.5zM369 812q-11 -8 -22 -1t-11 19t11 21q28 18 86 56q11 7 22 0t11 -18.5t-11 -20.5q-45 -31 -86 -56z" />
    <glyph glyph-name="cacute" unicode="&#x107;" horiz-adv-x="673" 
d="M305 6q-90 17 -154.5 81.5t-90 149t-18.5 178t49 167.5q41 74 112 119.5t153 46.5q183 2 272 -132q8 -11 1.5 -21.5t-18.5 -10.5t-21 10q-50 73 -141 99.5t-174 -5.5q-89 -32 -139.5 -118.5t-52.5 -186.5q-2 -99 45 -188t132 -128q84 -40 181 -15.5t149 101.5q8 11 21 10
t18.5 -10.5t-0.5 -22.5q-53 -79 -140 -110.5t-184 -13.5zM372 802q-11 -8 -22 -1t-11 19t11 21q28 18 86 56q11 7 22 0t11 -18.5t-11 -20.5q-45 -31 -86 -56z" />
    <glyph glyph-name="cdotaccent" unicode="&#x10b;" horiz-adv-x="673" 
d="M305 6q-90 17 -154.5 81.5t-90 149t-18.5 178t49 167.5q41 74 112 119.5t153 46.5q183 2 272 -132q8 -11 1.5 -21.5t-18.5 -10.5t-21 10q-50 73 -141 99.5t-174 -5.5q-89 -32 -139.5 -118.5t-52.5 -186.5q-2 -99 45 -188t132 -128q84 -40 181 -15.5t149 101.5q8 11 21 10
t18.5 -10.5t-0.5 -22.5q-53 -79 -140 -110.5t-184 -13.5zM366 865q17 0 23.5 -13.5t0 -27.5t-23.5 -14q-16 0 -23 14t0 27.5t23 13.5z" />
    <glyph glyph-name="Ccaron" unicode="&#x10c;" horiz-adv-x="673" 
d="M305 6q-90 17 -154.5 81.5t-90 149t-18.5 178t49 167.5q41 74 112 119.5t153 46.5q183 2 272 -132q8 -11 1.5 -21.5t-18.5 -10.5t-21 10q-50 73 -141 99.5t-174 -5.5q-89 -32 -139.5 -118.5t-52.5 -186.5q-2 -99 45 -188t132 -128q84 -40 181 -15.5t149 101.5q8 11 21 10
t18.5 -10.5t-0.5 -22.5q-53 -79 -140 -110.5t-184 -13.5zM348 819q-75 48 -85 55q-11 7 -10.5 20.5t10 19t22.5 -0.5q54 -35 73 -48q12 8 37 25t38 25q11 8 22 1t11.5 -19t-10.5 -21q-63 -41 -85 -57q-12 -7 -23 0z" />
    <glyph glyph-name="ccaron" unicode="&#x10d;" horiz-adv-x="673" 
d="M305 6q-90 17 -154.5 81.5t-90 149t-18.5 178t49 167.5q41 74 112 119.5t153 46.5q183 2 272 -132q8 -11 1.5 -21.5t-18.5 -10.5t-21 10q-50 73 -141 99.5t-174 -5.5q-89 -32 -139.5 -118.5t-52.5 -186.5q-2 -99 45 -188t132 -128q84 -40 181 -15.5t149 101.5q8 11 21 10
t18.5 -10.5t-0.5 -22.5q-53 -79 -140 -110.5t-184 -13.5zM351 809q-75 48 -85 55q-11 7 -10.5 20.5t10 19t22.5 -0.5q54 -35 73 -48q13 8 38 25t37 25q11 8 22 1t11.5 -19t-10.5 -21q-63 -41 -85 -57q-12 -7 -23 0z" />
    <glyph glyph-name="Dcaron" unicode="&#x10e;" horiz-adv-x="575" 
d="M66 1q-9 0 -16 6.5t-7 15.5q0 116 -1.5 347.5t-1.5 347.5q0 9 6.5 15.5t15.5 6.5q23 0 65.5 1.5t72.5 2t70.5 -1t71.5 -8.5t63.5 -19.5t58 -35.5t43.5 -54q10 -18 16.5 -37.5t8.5 -44t2.5 -39.5t0 -45.5t-0.5 -40.5v-206q-4 -94 -74.5 -152.5t-166.5 -59.5q-77 -1 -227 1
zM255 695q-114 0 -170 1q0 -108 1.5 -325t1.5 -326q12 0 46 -1.5t51.5 -2t51.5 0t54 3t49.5 7.5t47 13.5t38.5 21.5t33 30.5t20.5 41.5t9.5 53v180q0 12 2 56t0.5 74t-10.5 55q-42 118 -226 118zM247 810q-75 48 -85 55q-11 7 -10.5 20.5t10 19t22.5 -0.5q54 -35 73 -48
q12 8 37 25t38 25q11 8 22 1t11.5 -19t-10.5 -21q-63 -41 -85 -57q-12 -7 -23 0z" />
    <glyph glyph-name="dcaron" unicode="&#x10f;" horiz-adv-x="600" 
d="M66 1q-9 0 -16 6.5t-7 15.5q0 116 -1.5 347.5t-1.5 347.5q0 9 6.5 15.5t15.5 6.5q23 0 65.5 1.5t72.5 2t70.5 -1t71.5 -8.5t63.5 -19.5t58 -35.5t43.5 -54q10 -18 16.5 -37.5t8.5 -44t2.5 -39.5t0 -45.5t-0.5 -40.5v-206q-4 -94 -74.5 -152.5t-166.5 -59.5q-77 -1 -227 1
zM255 695q-114 0 -170 1q0 -108 1.5 -325t1.5 -326q12 0 46 -1.5t51.5 -2t51.5 0t54 3t49.5 7.5t47 13.5t38.5 21.5t33 30.5t20.5 41.5t9.5 53v180q0 12 2 56t0.5 74t-10.5 55q-42 118 -226 118zM247 810q-75 48 -85 55q-11 7 -10.5 20.5t10 19t22.5 -0.5q54 -35 73 -48
q12 8 37 25t38 25q11 8 22 1t11.5 -19t-10.5 -21q-63 -41 -85 -57q-12 -7 -23 0z" />
    <glyph glyph-name="Emacron" unicode="&#x112;" 
d="M62 0q-9 0 -15.5 6.5t-6.5 15.5v695q0 9 6.5 15.5t15.5 6.5h444q21 0 21 -22t-21 -22h-421v-216h377q21 0 21 -22.5t-21 -22.5h-377v-389h421q21 0 21 -22.5t-21 -22.5h-444zM152 798q-14 0 -19.5 11t0 22.5t19.5 11.5h258q14 0 19.5 -11.5t0 -22.5t-19.5 -11h-258z" />
    <glyph glyph-name="emacron" unicode="&#x113;" 
d="M62 0q-9 0 -15.5 6.5t-6.5 15.5v695q0 9 6.5 15.5t15.5 6.5h444q21 0 21 -22t-21 -22h-421v-216h377q21 0 21 -22.5t-21 -22.5h-377v-389h421q21 0 21 -22.5t-21 -22.5h-444zM152 810q-14 0 -19.5 11t0 22.5t19.5 11.5h258q14 0 19.5 -11.5t0 -22.5t-19.5 -11h-258z" />
    <glyph glyph-name="edotaccent" unicode="&#x117;" 
d="M62 0q-9 0 -15.5 6.5t-6.5 15.5v695q0 9 6.5 15.5t15.5 6.5h444q21 0 21 -22t-21 -22h-421v-216h377q21 0 21 -22.5t-21 -22.5h-377v-389h421q21 0 21 -22.5t-21 -22.5h-444zM289 863q17 0 23.5 -13.5t0 -27.5t-23.5 -14t-23.5 14t0.5 27.5t23 13.5z" />
    <glyph glyph-name="Eogonek" unicode="&#x118;" 
d="M62 0q-9 0 -15.5 6.5t-6.5 15.5v695q0 9 6.5 15.5t15.5 6.5h444q21 0 21 -22t-21 -22h-421v-216h377q21 0 21 -22.5t-21 -22.5h-377v-389h421q21 0 21 -22.5t-21 -22.5h-444zM551 28q-20 -18 -19.5 -40.5t9.5 -37t28 -38.5q9 -10 4 -22t-16 -14t-22 7q-44 52 -50 87
q-10 50 36 91q10 9 22 4.5t14.5 -16t-6.5 -21.5z" />
    <glyph glyph-name="eogonek" unicode="&#x119;" 
d="M62 0q-9 0 -15.5 6.5t-6.5 15.5v695q0 9 6.5 15.5t15.5 6.5h444q21 0 21 -22t-21 -22h-421v-216h377q21 0 21 -22.5t-21 -22.5h-377v-389h421q21 0 21 -22.5t-21 -22.5h-444zM551 28q-20 -18 -19.5 -40.5t9.5 -37t28 -38.5q9 -10 4 -22t-16 -14t-22 7q-44 52 -50 87
q-10 50 36 91q10 9 22 4.5t14.5 -16t-6.5 -21.5z" />
    <glyph glyph-name="Ecaron" unicode="&#x11a;" 
d="M62 0q-9 0 -15.5 6.5t-6.5 15.5v695q0 9 6.5 15.5t15.5 6.5h444q21 0 21 -22t-21 -22h-421v-216h377q21 0 21 -22.5t-21 -22.5h-377v-389h421q21 0 21 -22.5t-21 -22.5h-444zM274 795q-75 48 -85 55q-11 7 -10.5 20.5t10 19t22.5 -0.5q54 -35 73 -48q13 8 38 25t37 25
q11 8 22 1t11.5 -19t-10.5 -21q-63 -41 -85 -57q-12 -7 -23 0z" />
    <glyph glyph-name="ecaron" unicode="&#x11b;" 
d="M62 0q-9 0 -15.5 6.5t-6.5 15.5v695q0 9 6.5 15.5t15.5 6.5h444q21 0 21 -22t-21 -22h-421v-216h377q21 0 21 -22.5t-21 -22.5h-377v-389h421q21 0 21 -22.5t-21 -22.5h-444zM274 807q-75 48 -85 55q-11 7 -10.5 20.5t10 19t22.5 -0.5q54 -35 73 -48q13 8 38 25t37 25
q11 8 22 1t11.5 -19t-10.5 -21q-63 -41 -85 -57q-12 -7 -23 0z" />
    <glyph glyph-name="Gbreve" unicode="&#x11e;" horiz-adv-x="683" 
d="M357 701q-91 -1 -157 -57t-92.5 -135.5t-20 -170.5t48.5 -160q82 -133 243 -133q81 1 143.5 44t73.5 118h-176q-14 0 -19.5 11t0 22.5t19.5 11.5h201q9 0 16 -6.5t6 -15.5q-3 -109 -85 -170t-194 -60q-72 0 -132 29.5t-99.5 77.5t-63.5 111t-28.5 128.5t11.5 132.5
t51 121q99 151 289 146q101 -2 174.5 -66t76.5 -163q0 -14 -11 -19.5t-22.5 0t-11.5 19.5q-3 92 -74 139t-167 45zM434 878q1 13 12 18.5t21.5 0t9.5 -18.5q-2 -36 -34.5 -57t-70.5 -21t-70 20.5t-33 57.5q0 13 10.5 18.5t21.5 0t11 -18.5l1 -2q2 -9 5 -12q14 -18 54 -18
q44 0 57 20q5 7 5 12z" />
    <glyph glyph-name="gbreve" unicode="&#x11f;" horiz-adv-x="683" 
d="M357 701q-91 -1 -157 -57t-92.5 -135.5t-20 -170.5t48.5 -160q82 -133 243 -133q81 1 143.5 44t73.5 118h-176q-14 0 -19.5 11t0 22.5t19.5 11.5h201q9 0 16 -6.5t6 -15.5q-3 -109 -85 -170t-194 -60q-72 0 -132 29.5t-99.5 77.5t-63.5 111t-28.5 128.5t11.5 132.5
t51 121q99 151 289 146q101 -2 174.5 -66t76.5 -163q0 -14 -11 -19.5t-22.5 0t-11.5 19.5q-3 92 -74 139t-167 45zM434 878q1 13 12 18.5t21.5 0t9.5 -18.5q-2 -36 -34.5 -57t-70.5 -21t-70 20.5t-33 57.5q0 13 10.5 18.5t21.5 0t11 -18.5l1 -2q2 -9 5 -12q14 -18 54 -18
q44 0 57 20q5 7 5 12z" />
    <glyph glyph-name="Gdotaccent" unicode="&#x120;" horiz-adv-x="683" 
d="M357 701q-91 -1 -157 -57t-92.5 -135.5t-20 -170.5t48.5 -160q82 -133 243 -133q81 1 143.5 44t73.5 118h-176q-14 0 -19.5 11t0 22.5t19.5 11.5h201q9 0 16 -6.5t6 -15.5q-3 -109 -85 -170t-194 -60q-72 0 -132 29.5t-99.5 77.5t-63.5 111t-28.5 128.5t11.5 132.5
t51 121q99 151 289 146q101 -2 174.5 -66t76.5 -163q0 -14 -11 -19.5t-22.5 0t-11.5 19.5q-3 92 -74 139t-167 45zM375 872q17 0 23.5 -14t0 -27.5t-23.5 -13.5q-12 0 -19 8.5t-7 19t7 19t19 8.5z" />
    <glyph glyph-name="gdotaccent" unicode="&#x121;" horiz-adv-x="683" 
d="M357 701q-91 -1 -157 -57t-92.5 -135.5t-20 -170.5t48.5 -160q82 -133 243 -133q81 1 143.5 44t73.5 118h-176q-14 0 -19.5 11t0 22.5t19.5 11.5h201q9 0 16 -6.5t6 -15.5q-3 -109 -85 -170t-194 -60q-72 0 -132 29.5t-99.5 77.5t-63.5 111t-28.5 128.5t11.5 132.5
t51 121q99 151 289 146q101 -2 174.5 -66t76.5 -163q0 -14 -11 -19.5t-22.5 0t-11.5 19.5q-3 92 -74 139t-167 45zM375 872q17 0 23.5 -14t0 -27.5t-23.5 -13.5q-12 0 -19 8.5t-7 19t7 19t19 8.5z" />
    <glyph glyph-name="Imacron" unicode="&#x12a;" horiz-adv-x="244" 
d="M-10 798q-14 0 -19.5 11t0 22.5t19.5 11.5h258q14 0 19.5 -11.5t0 -22.5t-19.5 -11h-258zM144 21q0 -14 -11 -19.5t-22 0t-11 19.5v696q0 14 11 19.5t22 0t11 -19.5v-696z" />
    <glyph glyph-name="imacron" unicode="&#x12b;" horiz-adv-x="382" 
d="M62 798q-14 0 -19.5 11t0 22.5t19.5 11.5h258q14 0 19.5 -11.5t0 -22.5t-19.5 -11h-258zM216 21q0 -14 -11 -19.5t-22 0t-11 19.5v696q0 14 11 19.5t22 0t11 -19.5v-696z" />
    <glyph glyph-name="Idotaccent" unicode="&#x130;" horiz-adv-x="244" 
d="M122 851q17 0 23.5 -13.5t0 -27.5t-23.5 -14t-23.5 14t0.5 27.5t23 13.5zM144 21q0 -14 -11 -19.5t-22 0t-11 19.5v696q0 14 11 19.5t22 0t11 -19.5v-696z" />
    <glyph glyph-name="dotlessi" unicode="&#x131;" horiz-adv-x="124" 
d="M84 21q0 -14 -11 -19.5t-22 0t-11 19.5v448q0 14 11 19.5t22 0t11 -19.5v-448z" />
    <glyph glyph-name="IJ" unicode="&#x132;" horiz-adv-x="821" 
d="M144 21q0 -14 -11 -19.5t-22 0t-11 19.5v696q0 14 11 19.5t22 0t11 -19.5v-696zM756 126q-27 -51 -72.5 -82.5t-97 -40t-105 2t-96.5 38.5t-71 75t-30 106q0 14 11 19.5t22.5 0t11.5 -19.5q1 -51 28 -92t68.5 -62t91 -27.5t95.5 12.5q58 22 91 70.5t33 111.5v162v302
h-217q-14 0 -19.5 11t0 22.5t19.5 11.5h239q9 0 16 -7t7 -16v-179v-249v-21v-23t-0.5 -20.5t-1.5 -22.5t-3 -20t-4.5 -22.5t-6.5 -19.5t-9 -21z" />
    <glyph glyph-name="ij" unicode="&#x133;" horiz-adv-x="821" 
d="M144 21q0 -14 -11 -19.5t-22 0t-11 19.5v696q0 14 11 19.5t22 0t11 -19.5v-696zM756 126q-27 -51 -72.5 -82.5t-97 -40t-105 2t-96.5 38.5t-71 75t-30 106q0 14 11 19.5t22.5 0t11.5 -19.5q1 -51 28 -92t68.5 -62t91 -27.5t95.5 12.5q58 22 91 70.5t33 111.5v162v302
h-217q-14 0 -19.5 11t0 22.5t19.5 11.5h239q9 0 16 -7t7 -16v-179v-249v-21v-23t-0.5 -20.5t-1.5 -22.5t-3 -20t-4.5 -22.5t-6.5 -19.5t-9 -21z" />
    <glyph glyph-name="Lacute" unicode="&#x139;" horiz-adv-x="539" 
d="M40 720q0 21 22.5 21t22.5 -21v-674h392q14 0 19.5 -11t0 -22.5t-19.5 -11.5h-415q-9 0 -15.5 6.5t-6.5 15.5v697zM53 766q-11 -8 -22 -1t-11 19t11 21q28 18 86 56q11 7 22 0t11 -18.5t-11 -20.5q-45 -31 -86 -56z" />
    <glyph glyph-name="lacute" unicode="&#x13a;" horiz-adv-x="539" 
d="M40 720q0 21 22.5 21t22.5 -21v-674h392q14 0 19.5 -11t0 -22.5t-19.5 -11.5h-415q-9 0 -15.5 6.5t-6.5 15.5v697zM53 766q-11 -8 -22 -1t-11 19t11 21q28 18 86 56q11 7 22 0t11 -18.5t-11 -20.5q-45 -31 -86 -56z" />
    <glyph glyph-name="Ldot" unicode="&#x13f;" horiz-adv-x="539" 
d="M298 373q-31 0 -43.5 25t0 50t43.5 25q30 0 42.5 -25t0 -50t-42.5 -25zM40 720q0 21 22.5 21t22.5 -21v-674h392q14 0 19.5 -11t0 -22.5t-19.5 -11.5h-415q-9 0 -15.5 6.5t-6.5 15.5v697z" />
    <glyph glyph-name="ldot" unicode="&#x140;" horiz-adv-x="539" 
d="M298 373q-31 0 -43.5 25t0 50t43.5 25q30 0 42.5 -25t0 -50t-42.5 -25zM40 720q0 21 22.5 21t22.5 -21v-674h392q14 0 19.5 -11t0 -22.5t-19.5 -11.5h-415q-9 0 -15.5 6.5t-6.5 15.5v697z" />
    <glyph glyph-name="Omacron" unicode="&#x14c;" horiz-adv-x="715" 
d="M668 466q25 -134 -25.5 -261t-169.5 -181q-102 -42 -200 -9.5t-161 122.5q-66 96 -71 220t52 226q55 99 157 144t205 6q154 -58 211 -259v-2l1 -2l1 -2v-2zM494 87q84 58 117.5 161.5t12.5 209.5q-25 90 -76.5 155.5t-133.5 85.5q-95 24 -178.5 -30t-122.5 -148
q-39 -92 -24.5 -200t80.5 -184q63 -73 153.5 -88t171.5 38zM231 796q-14 0 -19.5 11t0 22.5t19.5 11.5h258q14 0 19.5 -11.5t0 -22.5t-19.5 -11h-258z" />
    <glyph glyph-name="omacron" unicode="&#x14d;" horiz-adv-x="715" 
d="M668 466q25 -134 -25.5 -261t-169.5 -181q-102 -42 -200 -9.5t-161 122.5q-66 96 -71 220t52 226q55 99 157 144t205 6q154 -58 211 -259v-2l1 -2l1 -2v-2zM494 87q84 58 117.5 161.5t12.5 209.5q-25 90 -76.5 155.5t-133.5 85.5q-95 24 -178.5 -30t-122.5 -148
q-39 -92 -24.5 -200t80.5 -184q63 -73 153.5 -88t171.5 38zM231 799q-14 0 -19.5 11.5t0 22.5t19.5 11h258q14 0 19.5 -11t0 -22.5t-19.5 -11.5h-258z" />
    <glyph glyph-name="OE" unicode="&#x152;" horiz-adv-x="1160" 
d="M655 3q-9 0 -15.5 6.5t-6.5 15.5v695q0 9 6.5 15.5t15.5 6.5h444q21 0 21 -22t-21 -22h-421v-216h377q21 0 21 -22.5t-21 -22.5h-377v-389h421q21 0 21 -22.5t-21 -22.5h-444zM668 466q25 -134 -25.5 -261t-169.5 -181q-102 -42 -200 -9.5t-161 122.5q-66 96 -71 220
t52 226q55 99 157 144t205 6q154 -58 211 -259v-2l1 -2l1 -2v-2zM494 87q84 58 117.5 161.5t12.5 209.5q-25 90 -76.5 155.5t-133.5 85.5q-95 24 -178.5 -30t-122.5 -148q-39 -92 -24.5 -200t80.5 -184q63 -73 153.5 -88t171.5 38z" />
    <glyph glyph-name="oe" unicode="&#x153;" horiz-adv-x="1160" 
d="M655 3q-9 0 -15.5 6.5t-6.5 15.5v695q0 9 6.5 15.5t15.5 6.5h444q21 0 21 -22t-21 -22h-421v-216h377q21 0 21 -22.5t-21 -22.5h-377v-389h421q21 0 21 -22.5t-21 -22.5h-444zM668 466q25 -134 -25.5 -261t-169.5 -181q-102 -42 -200 -9.5t-161 122.5q-66 96 -71 220
t52 226q55 99 157 144t205 6q154 -58 211 -259v-2l1 -2l1 -2v-2zM494 87q84 58 117.5 161.5t12.5 209.5q-25 90 -76.5 155.5t-133.5 85.5q-95 24 -178.5 -30t-122.5 -148q-39 -92 -24.5 -200t80.5 -184q63 -73 153.5 -88t171.5 38z" />
    <glyph glyph-name="Scedilla" unicode="&#x15e;" horiz-adv-x="577" 
d="M269 45q64 -6 123 9.5t84 62.5q26 45 13.5 96t-59.5 73q-19 9 -43.5 15t-42.5 8.5t-47.5 5.5t-43.5 5q-108 16 -152 61q-45 48 -52 122q-6 89 56 156.5t152 78.5q106 13 191 -53t89 -172q0 -14 -11 -19.5t-22.5 0t-11.5 19.5q-2 60 -37 104.5t-86.5 61t-105.5 13.5
t-99.5 -37t-62.5 -92q-21 -67 13 -125q13 -22 31.5 -37t46.5 -23t44.5 -11t50.5 -7q28 -3 38.5 -4.5t37.5 -5.5t40.5 -8.5l36 -12t35 -17.5t27 -23.5t22.5 -31t11 -39.5q6 -46 -7.5 -90.5t-45.5 -73.5q-53 -48 -164 -54q-109 -6 -191.5 56.5t-86.5 170.5q0 14 11 19.5
t22.5 0t11.5 -19.5q2 -73 55.5 -124.5t128.5 -57.5zM218 -99q38 1 49.5 27t12.5 72q0 14 11 19.5t22.5 0t11.5 -19.5q-2 -70 -20 -99q-24 -43 -87 -45q-14 0 -19.5 11t0 22.5t19.5 11.5z" />
    <glyph glyph-name="scedilla" unicode="&#x15f;" horiz-adv-x="577" 
d="M269 45q64 -6 123 9.5t84 62.5q26 45 13.5 96t-59.5 73q-19 9 -43.5 15t-42.5 8.5t-47.5 5.5t-43.5 5q-108 16 -152 61q-45 48 -52 122q-6 89 56 156.5t152 78.5q106 13 191 -53t89 -172q0 -14 -11 -19.5t-22.5 0t-11.5 19.5q-2 60 -37 104.5t-86.5 61t-105.5 13.5
t-99.5 -37t-62.5 -92q-21 -67 13 -125q13 -22 31.5 -37t46.5 -23t44.5 -11t50.5 -7q28 -3 38.5 -4.5t37.5 -5.5t40.5 -8.5l36 -12t35 -17.5t27 -23.5t22.5 -31t11 -39.5q6 -46 -7.5 -90.5t-45.5 -73.5q-53 -48 -164 -54q-109 -6 -191.5 56.5t-86.5 170.5q0 14 11 19.5
t22.5 0t11.5 -19.5q2 -73 55.5 -124.5t128.5 -57.5zM218 -99q38 1 49.5 27t12.5 72q0 14 11 19.5t22.5 0t11.5 -19.5q-2 -70 -20 -99q-24 -43 -87 -45q-14 0 -19.5 11t0 22.5t19.5 11.5z" />
    <glyph glyph-name="Scaron" unicode="&#x160;" horiz-adv-x="600" 
d="M275 798q-75 48 -85 55q-11 7 -10.5 20.5t10 19t22.5 -0.5q54 -35 73 -48q13 8 38 25t37 25q11 8 22 1t11.5 -19t-10.5 -21q-63 -41 -85 -57q-12 -7 -23 0zM269 45q64 -6 123 9.5t84 62.5q26 45 13.5 96t-59.5 73q-19 9 -43.5 15t-42.5 8.5t-47.5 5.5t-43.5 5
q-108 16 -152 61q-45 48 -52 122q-6 89 56 156.5t152 78.5q106 13 191 -53t89 -172q0 -14 -11 -19.5t-22.5 0t-11.5 19.5q-2 60 -37 104.5t-86.5 61t-105.5 13.5t-99.5 -37t-62.5 -92q-21 -67 13 -125q13 -22 31.5 -37t46.5 -23t44.5 -11t50.5 -7q28 -3 38.5 -4.5t37.5 -5.5
t40.5 -8.5l36 -12t35 -17.5t27 -23.5t22.5 -31t11 -39.5q6 -46 -7.5 -90.5t-45.5 -73.5q-53 -48 -164 -54q-109 -6 -191.5 56.5t-86.5 170.5q0 14 11 19.5t22.5 0t11.5 -19.5q2 -73 55.5 -124.5t128.5 -57.5z" />
    <glyph glyph-name="scaron" unicode="&#x161;" horiz-adv-x="600" 
d="M275 798q-75 48 -85 55q-11 7 -10.5 20.5t10 19t22.5 -0.5q54 -35 73 -48q13 8 38 25t37 25q11 8 22 1t11.5 -19t-10.5 -21q-63 -41 -85 -57q-12 -7 -23 0zM269 45q64 -6 123 9.5t84 62.5q26 45 13.5 96t-59.5 73q-19 9 -43.5 15t-42.5 8.5t-47.5 5.5t-43.5 5
q-108 16 -152 61q-45 48 -52 122q-6 89 56 156.5t152 78.5q106 13 191 -53t89 -172q0 -14 -11 -19.5t-22.5 0t-11.5 19.5q-2 60 -37 104.5t-86.5 61t-105.5 13.5t-99.5 -37t-62.5 -92q-21 -67 13 -125q13 -22 31.5 -37t46.5 -23t44.5 -11t50.5 -7q28 -3 38.5 -4.5t37.5 -5.5
t40.5 -8.5l36 -12t35 -17.5t27 -23.5t22.5 -31t11 -39.5q6 -46 -7.5 -90.5t-45.5 -73.5q-53 -48 -164 -54q-109 -6 -191.5 56.5t-86.5 170.5q0 14 11 19.5t22.5 0t11.5 -19.5q2 -73 55.5 -124.5t128.5 -57.5z" />
    <glyph glyph-name="Umacron" unicode="&#x16a;" horiz-adv-x="579" 
d="M85 423v-149q0 -82 11 -109q21 -54 68.5 -85.5t101.5 -33.5t104.5 15t85 61.5t36.5 103.5q2 73 2 155t-1 182t-1 154q0 14 11 19.5t22.5 0t11.5 -19.5v-336q0 -12 1 -58.5t0 -67t-5.5 -56.5t-16.5 -63t-32 -50q-55 -64 -141.5 -81.5t-166.5 19t-116 114.5q-20 42 -20 126
v168v285q0 14 11 19.5t22.5 0t11.5 -19.5v-294zM159 774q-14 0 -19.5 11t0 22.5t19.5 11.5h258q14 0 19.5 -11.5t0 -22.5t-19.5 -11h-258z" />
    <glyph glyph-name="umacron" unicode="&#x16b;" horiz-adv-x="579" 
d="M85 423v-149q0 -82 11 -109q21 -54 68.5 -85.5t101.5 -33.5t104.5 15t85 61.5t36.5 103.5q2 73 2 155t-1 182t-1 154q0 14 11 19.5t22.5 0t11.5 -19.5v-336q0 -12 1 -58.5t0 -67t-5.5 -56.5t-16.5 -63t-32 -50q-55 -64 -141.5 -81.5t-166.5 19t-116 114.5q-20 42 -20 126
v168v285q0 14 11 19.5t22.5 0t11.5 -19.5v-294zM156 782q-14 0 -19.5 11t0 22.5t19.5 11.5h258q14 0 19.5 -11.5t0 -22.5t-19.5 -11h-258z" />
    <glyph glyph-name="Wcircumflex" unicode="&#x174;" horiz-adv-x="701" 
d="M616 729q0 14 11 19.5t22.5 0t11.5 -19.5v-707q0 -15 -13.5 -20t-24.5 4l-273 228q-90 -76 -272 -228q-10 -9 -24 -4t-14 20v707q0 14 11 19.5t22.5 0t11.5 -19.5v-659q45 37 128.5 107.5t121.5 101.5q15 12 31 0q84 -70 250 -210v660zM368 893q14 -10 42 -28.5t42 -27.5
q11 -8 10 -21t-10.5 -18.5t-21.5 0.5q-40 25 -73 49q-13 -8 -38 -24.5t-37 -24.5t-22.5 -1t-10.5 19t10 21q8 5 39 25t47 31q12 7 23 0z" />
    <glyph glyph-name="wcircumflex" unicode="&#x175;" horiz-adv-x="701" 
d="M616 729q0 14 11 19.5t22.5 0t11.5 -19.5v-707q0 -15 -13.5 -20t-24.5 4l-273 228q-90 -76 -272 -228q-10 -9 -24 -4t-14 20v707q0 14 11 19.5t22.5 0t11.5 -19.5v-659q45 37 128.5 107.5t121.5 101.5q15 12 31 0q84 -70 250 -210v660zM373 881q14 -10 42 -28t42 -28
q11 -8 10 -21t-10.5 -18.5t-21.5 0.5q-40 25 -73 49q-13 -8 -38 -24.5t-37 -24.5t-22.5 -1t-10.5 19t10 21q8 5 39 25t47 31q12 7 23 0z" />
    <glyph glyph-name="Ycircumflex" unicode="&#x176;" horiz-adv-x="633" 
d="M550 733q8 10 21.5 8.5t18.5 -10.5t-2 -21q-20 -27 -251 -332v-356q0 -14 -11 -19.5t-22 0t-11 19.5v352l-249 336q-8 11 -1 21.5t19 11t21 -9.5q39 -52 116 -156.5t115 -156.5q43 58 123.5 164.5t112.5 148.5zM336 892q14 -9 42 -27.5t42 -28.5q11 -8 10 -21
t-10.5 -18.5t-21.5 0.5q-40 25 -73 49q-13 -8 -38 -24.5t-37 -24.5t-22.5 -1t-10.5 19t10 21q8 5 39 25t47 31q12 7 23 0z" />
    <glyph glyph-name="ycircumflex" unicode="&#x177;" horiz-adv-x="633" 
d="M550 733q8 10 21.5 8.5t18.5 -10.5t-2 -21q-20 -27 -251 -332v-356q0 -14 -11 -19.5t-22 0t-11 19.5v352l-249 336q-8 11 -1 21.5t19 11t21 -9.5q39 -52 116 -156.5t115 -156.5q43 58 123.5 164.5t112.5 148.5zM330 854q14 -9 42 -27.5t42 -28.5q11 -8 10 -21
t-10.5 -18.5t-21.5 0.5q-40 25 -73 49q-12 -8 -37 -24.5t-38 -24.5q-12 -8 -22.5 -1t-10.5 19t10 21q8 5 39 25t47 31q12 7 23 0z" />
    <glyph glyph-name="Ydieresis" unicode="&#x178;" horiz-adv-x="633" 
d="M550 733q8 10 21.5 8.5t18.5 -10.5t-2 -21q-20 -27 -251 -332v-356q0 -14 -11 -19.5t-22 0t-11 19.5v352l-249 336q-8 11 -1 21.5t19 11t21 -9.5q39 -52 116 -156.5t115 -156.5q43 58 123.5 164.5t112.5 148.5zM254 869q19 0 27 -15.5t0 -31.5t-27 -16t-26.5 16t0 31.5
t26.5 15.5zM393 869q19 0 26.5 -15.5t0 -31.5t-26.5 -16t-27 16t0 31.5t27 15.5z" />
    <glyph glyph-name="Zacute" unicode="&#x179;" horiz-adv-x="613" 
d="M551 45q21 0 21 -22.5t-21 -22.5h-488q-12 0 -19.5 11.5t-0.5 22.5q21 28 61 86q68 95 202 286.5t202 286.5h-430q-14 0 -19.5 11.5t0 22.5t19.5 11h473q12 0 19 -12t0 -22q-49 -69 -61 -86q-67 -95 -201.5 -286t-201.5 -287h445zM323 797q-11 -8 -22 -1t-11 19t11 21
q28 18 86 56q11 7 22 0t11 -18.5t-11 -20.5q-45 -31 -86 -56z" />
    <glyph glyph-name="zacute" unicode="&#x17a;" horiz-adv-x="613" 
d="M551 45q21 0 21 -22.5t-21 -22.5h-488q-12 0 -19.5 11.5t-0.5 22.5q21 28 61 86q68 95 202 286.5t202 286.5h-430q-14 0 -19.5 11.5t0 22.5t19.5 11h473q12 0 19 -12t0 -22q-49 -69 -61 -86q-67 -95 -201.5 -286t-201.5 -287h445zM323 797q-11 -8 -22 -1t-11 19t11 21
q28 18 86 56q11 7 22 0t11 -18.5t-11 -20.5q-45 -31 -86 -56z" />
    <glyph glyph-name="Zdotaccent" unicode="&#x17b;" horiz-adv-x="613" 
d="M551 45q21 0 21 -22.5t-21 -22.5h-488q-12 0 -19.5 11.5t-0.5 22.5q21 28 61 86q68 95 202 286.5t202 286.5h-430q-14 0 -19.5 11.5t0 22.5t19.5 11h473q12 0 19 -12t0 -22q-49 -69 -61 -86q-67 -95 -201.5 -286t-201.5 -287h445zM317 860q17 0 23.5 -14t0 -27.5
t-23.5 -13.5q-12 0 -19 8.5t-7 19t7 19t19 8.5z" />
    <glyph glyph-name="zdotaccent" unicode="&#x17c;" horiz-adv-x="613" 
d="M551 45q21 0 21 -22.5t-21 -22.5h-488q-12 0 -19.5 11.5t-0.5 22.5q21 28 61 86q68 95 202 286.5t202 286.5h-430q-14 0 -19.5 11.5t0 22.5t19.5 11h473q12 0 19 -12t0 -22q-49 -69 -61 -86q-67 -95 -201.5 -286t-201.5 -287h445zM317 860q17 0 23.5 -14t0 -27.5
t-23.5 -13.5q-12 0 -19 8.5t-7 19t7 19t19 8.5z" />
    <glyph glyph-name="Zcaron" unicode="&#x17d;" horiz-adv-x="613" 
d="M551 45q21 0 21 -22.5t-21 -22.5h-488q-12 0 -19.5 11.5t-0.5 22.5q21 28 61 86q68 95 202 286.5t202 286.5h-430q-14 0 -19.5 11.5t0 22.5t19.5 11h473q12 0 19 -12t0 -22q-49 -69 -61 -86q-67 -95 -201.5 -286t-201.5 -287h445zM302 804q-75 48 -85 55
q-11 7 -10.5 20.5t10 19t22.5 -0.5q54 -35 73 -48q12 8 37 25t38 25q11 8 22 1t11.5 -19t-10.5 -21q-63 -41 -85 -57q-12 -7 -23 0z" />
    <glyph glyph-name="zcaron" unicode="&#x17e;" horiz-adv-x="613" 
d="M551 45q21 0 21 -22.5t-21 -22.5h-488q-12 0 -19.5 11.5t-0.5 22.5q21 28 61 86q68 95 202 286.5t202 286.5h-430q-14 0 -19.5 11.5t0 22.5t19.5 11h473q12 0 19 -12t0 -22q-49 -69 -61 -86q-67 -95 -201.5 -286t-201.5 -287h445zM302 804q-75 48 -85 55
q-11 7 -10.5 20.5t10 19t22.5 -0.5q54 -35 73 -48q12 8 37 25t38 25q11 8 22 1t11.5 -19t-10.5 -21q-63 -41 -85 -57q-12 -7 -23 0z" />
    <glyph glyph-name="Acaron" unicode="&#x1cd;" horiz-adv-x="591" 
d="M300 727q26 -72 114 -319t136 -382q5 -13 -4 -21t-21.5 -5.5t-17.5 14.5q-9 24 -31 86.5t-34 95.5h-331q-52 -143 -67 -181q-4 -13 -16.5 -15t-21.5 6t-5 21q55 148 256 700q6 16 22 16t21 -16zM127 241h299q-98 276 -148 415q-28 -78 -80 -219.5t-71 -195.5zM274 771
q-75 48 -85 55q-11 7 -10.5 20.5t10 19t22.5 -0.5q54 -35 73 -48q13 8 38 25t37 25q11 8 22 1t11.5 -19t-10.5 -21q-63 -41 -85 -57q-12 -7 -23 0z" />
    <glyph glyph-name="acaron" unicode="&#x1ce;" horiz-adv-x="591" 
d="M300 727q26 -72 114 -319t136 -382q5 -13 -4 -21t-21.5 -5.5t-17.5 14.5q-9 24 -31 86.5t-34 95.5h-331q-52 -143 -67 -181q-4 -13 -16.5 -15t-21.5 6t-5 21q55 148 256 700q6 16 22 16t21 -16zM127 241h299q-98 276 -148 415q-28 -78 -80 -219.5t-71 -195.5zM270 771
q-75 48 -85 55q-11 7 -10.5 20.5t10 19t22.5 -0.5q54 -35 73 -48q12 8 37 25t38 25q11 8 22 1t11.5 -19t-10.5 -21q-63 -41 -85 -57q-12 -7 -23 0z" />
    <glyph glyph-name="Icaron" unicode="&#x1cf;" horiz-adv-x="244" 
d="M112 795q-75 48 -85 55q-11 7 -10.5 20.5t10 19t22.5 -0.5q54 -35 73 -48q12 8 37 25t38 25q11 8 22 1t11.5 -19t-10.5 -21q-63 -41 -85 -57q-12 -7 -23 0zM144 21q0 -14 -11 -19.5t-22 0t-11 19.5v696q0 14 11 19.5t22 0t11 -19.5v-696z" />
    <glyph glyph-name="icaron" unicode="&#x1d0;" horiz-adv-x="294" 
d="M136 795q-75 48 -85 55q-11 7 -10.5 20.5t10 19t22.5 -0.5q54 -35 73 -48q12 8 37 25t38 25q11 8 22 1t11.5 -19t-10.5 -21q-63 -41 -85 -57q-12 -7 -23 0zM168 21q0 -14 -11 -19.5t-22 0t-11 19.5v696q0 14 11 19.5t22 0t11 -19.5v-696z" />
    <glyph glyph-name="Ocaron" unicode="&#x1d1;" horiz-adv-x="715" 
d="M668 466q25 -134 -25.5 -261t-169.5 -181q-102 -42 -200 -9.5t-161 122.5q-66 96 -71 220t52 226q55 99 157 144t205 6q154 -58 211 -259v-2l1 -2l1 -2v-2zM494 87q84 58 117.5 161.5t12.5 209.5q-25 90 -76.5 155.5t-133.5 85.5q-95 24 -178.5 -30t-122.5 -148
q-39 -92 -24.5 -200t80.5 -184q63 -73 153.5 -88t171.5 38zM353 793q-75 48 -85 55q-11 7 -10.5 20.5t10 19t22.5 -0.5q54 -35 73 -48q13 8 38 25t37 25q11 8 22 1t11.5 -19t-10.5 -21q-63 -41 -85 -57q-12 -7 -23 0z" />
    <glyph glyph-name="ocaron" unicode="&#x1d2;" horiz-adv-x="715" 
d="M668 466q25 -134 -25.5 -261t-169.5 -181q-102 -42 -200 -9.5t-161 122.5q-66 96 -71 220t52 226q55 99 157 144t205 6q154 -58 211 -259v-2l1 -2l1 -2v-2zM494 87q84 58 117.5 161.5t12.5 209.5q-25 90 -76.5 155.5t-133.5 85.5q-95 24 -178.5 -30t-122.5 -148
q-39 -92 -24.5 -200t80.5 -184q63 -73 153.5 -88t171.5 38zM353 796q-75 48 -85 55q-11 7 -10.5 20.5t10 19t22.5 -0.5q54 -35 73 -48q13 8 38 25t37 25q11 8 22 1t11.5 -19t-10.5 -21q-63 -41 -85 -57q-12 -7 -23 0z" />
    <glyph glyph-name="Ucaron" unicode="&#x1d3;" horiz-adv-x="579" 
d="M85 423v-149q0 -82 11 -109q21 -54 68.5 -85.5t101.5 -33.5t104.5 15t85 61.5t36.5 103.5q2 73 2 155t-1 182t-1 154q0 14 11 19.5t22.5 0t11.5 -19.5v-336q0 -12 1 -58.5t0 -67t-5.5 -56.5t-16.5 -63t-32 -50q-55 -64 -141.5 -81.5t-166.5 19t-116 114.5q-20 42 -20 126
v168v285q0 14 11 19.5t22.5 0t11.5 -19.5v-294zM281 771q-75 48 -85 55q-11 7 -10.5 20.5t10 19t22.5 -0.5q54 -35 73 -48q13 8 38 25t37 25q11 8 22 1t11.5 -19t-10.5 -21q-63 -41 -85 -57q-12 -7 -23 0z" />
    <glyph glyph-name="ucaron" unicode="&#x1d4;" horiz-adv-x="579" 
d="M85 423v-149q0 -82 11 -109q21 -54 68.5 -85.5t101.5 -33.5t104.5 15t85 61.5t36.5 103.5q2 73 2 155t-1 182t-1 154q0 14 11 19.5t22.5 0t11.5 -19.5v-336q0 -12 1 -58.5t0 -67t-5.5 -56.5t-16.5 -63t-32 -50q-55 -64 -141.5 -81.5t-166.5 19t-116 114.5q-20 42 -20 126
v168v285q0 14 11 19.5t22.5 0t11.5 -19.5v-294zM278 779q-75 48 -85 55q-11 7 -10.5 20.5t10 19t22.5 -0.5q54 -35 73 -48q13 8 38 25t37 25q11 8 22 1t11.5 -19t-10.5 -21q-63 -41 -85 -57q-12 -7 -23 0z" />
    <glyph glyph-name="circumflex" unicode="&#x2c6;" horiz-adv-x="254" 
d="M140 856q14 -10 42 -28.5t42 -27.5q11 -8 10 -21t-10.5 -18.5t-21.5 0.5q-40 25 -73 49q-12 -8 -37 -24.5t-38 -24.5q-12 -8 -22.5 -1t-10.5 19t10 21q8 5 39 25t47 31q12 7 23 0z" />
    <glyph glyph-name="caron" unicode="&#x2c7;" horiz-adv-x="600" 
d="M282 773q-75 48 -85 55q-11 7 -10.5 20.5t10 19t22.5 -0.5q54 -35 73 -48q12 8 37 25t38 25q11 8 22 1t11.5 -19t-10.5 -21q-63 -41 -85 -57q-12 -7 -23 0z" />
    <glyph glyph-name="breve" unicode="&#x2d8;" horiz-adv-x="600" 
d="M358 835q1 13 12 18.5t21.5 0t9.5 -18.5q-2 -36 -34.5 -57t-70.5 -21t-70 20.5t-33 57.5q0 13 10.5 18.5t21.5 0t11 -18.5l1 -2q2 -9 5 -12q13 -18 54 -18q44 0 57 20q5 7 5 12z" />
    <glyph glyph-name="dotaccent" unicode="&#x2d9;" horiz-adv-x="600" 
d="M301 829q17 0 23.5 -13.5t0 -27.5t-23.5 -14t-23.5 14t0.5 27.5t23 13.5z" />
    <glyph glyph-name="ring" unicode="&#x2da;" horiz-adv-x="600" 
d="M401 807q2 -39 -18.5 -67.5t-58.5 -35.5q-42 -8 -75.5 16t-37.5 66v4v4q1 40 21 67.5t59 32.5q42 6 75 -19.5t35 -67.5zM333 754q27 15 23 53q-3 26 -26 38t-47 1q-27 -13 -27 -56q1 -27 28 -38.5t49 2.5z" />
    <glyph glyph-name="ogonek" unicode="&#x2db;" horiz-adv-x="600" 
d="M551 28q-20 -18 -19.5 -40.5t9.5 -37t28 -38.5q9 -10 4 -22t-16 -14t-22 7q-44 52 -50 87q-10 50 36 91q10 9 22 4.5t14.5 -16t-6.5 -21.5z" />
    <glyph glyph-name="tilde" unicode="&#x2dc;" horiz-adv-x="267" 
d="M202 846q1 14 13 19.5t22.5 0t9.5 -19.5q-2 -28 -19 -47.5t-45 -23.5q-23 -3 -44 9q-6 3 -16 11t-17 12.5t-16 7t-16 -3t-13 -18.5q-8 -19 -27 -9q-19 12 -12 32q11 26 34 38.5t49 3.5q5 -2 18 -10t24.5 -15t24 -11.5t21 1.5t9.5 23z" />
    <glyph glyph-name="hungarumlaut" unicode="&#x2dd;" horiz-adv-x="273" 
d="M83 763q-6 -13 -18 -13t-20 10t-3 23q7 15 20.5 46.5t20.5 47.5q5 13 17.5 13t20.5 -10t2 -23q-6 -15 -20 -47t-20 -47zM191 763q-6 -13 -18 -13t-20 10t-3 23q7 15 20.5 46.5t20.5 47.5q5 13 17.5 13t20.5 -10t2 -23q-7 -15 -20.5 -47t-19.5 -47z" />
    <glyph glyph-name="Wgrave" unicode="&#x1e80;" horiz-adv-x="701" 
d="M616 729q0 14 11 19.5t22.5 0t11.5 -19.5v-707q0 -15 -13.5 -20t-24.5 4l-273 228q-90 -76 -272 -228q-10 -9 -24 -4t-14 20v707q0 14 11 19.5t22.5 0t11.5 -19.5v-659q45 37 128.5 107.5t121.5 101.5q15 12 31 0q84 -70 250 -210v660zM358 810q12 -8 22.5 -1t10.5 19
t-10 20q-58 38 -86 56q-12 8 -22.5 1t-10.5 -19t10 -21q13 -8 86 -55z" />
    <glyph glyph-name="wgrave" unicode="&#x1e81;" horiz-adv-x="701" 
d="M616 729q0 14 11 19.5t22.5 0t11.5 -19.5v-707q0 -15 -13.5 -20t-24.5 4l-273 228q-90 -76 -272 -228q-10 -9 -24 -4t-14 20v707q0 14 11 19.5t22.5 0t11.5 -19.5v-659q45 37 128.5 107.5t121.5 101.5q15 12 31 0q84 -70 250 -210v660zM363 798q12 -8 22.5 -1t10.5 19
t-10 20q-58 38 -86 56q-12 8 -22.5 1t-10.5 -19t10 -21q13 -8 86 -55z" />
    <glyph glyph-name="Wacute" unicode="&#x1e82;" horiz-adv-x="701" 
d="M616 729q0 14 11 19.5t22.5 0t11.5 -19.5v-707q0 -15 -13.5 -20t-24.5 4l-273 228q-90 -76 -272 -228q-10 -9 -24 -4t-14 20v707q0 14 11 19.5t22.5 0t11.5 -19.5v-659q45 37 128.5 107.5t121.5 101.5q15 12 31 0q84 -70 250 -210v660zM363 803q-11 -8 -22 -1t-11 19
t11 21q28 18 86 56q11 7 22 0t11 -18.5t-11 -20.5q-45 -31 -86 -56z" />
    <glyph glyph-name="wacute" unicode="&#x1e83;" horiz-adv-x="701" 
d="M616 729q0 14 11 19.5t22.5 0t11.5 -19.5v-707q0 -15 -13.5 -20t-24.5 4l-273 228q-90 -76 -272 -228q-10 -9 -24 -4t-14 20v707q0 14 11 19.5t22.5 0t11.5 -19.5v-659q45 37 128.5 107.5t121.5 101.5q15 12 31 0q84 -70 250 -210v660zM368 791q-11 -8 -22 -1t-11 19
t11 21q28 18 86 56q11 7 22 0t11 -18.5t-11 -20.5q-45 -31 -86 -56z" />
    <glyph glyph-name="Wdieresis" unicode="&#x1e84;" horiz-adv-x="701" 
d="M616 729q0 14 11 19.5t22.5 0t11.5 -19.5v-707q0 -15 -13.5 -20t-24.5 4l-273 228q-90 -76 -272 -228q-10 -9 -24 -4t-14 20v707q0 14 11 19.5t22.5 0t11.5 -19.5v-659q45 37 128.5 107.5t121.5 101.5q15 12 31 0q84 -70 250 -210v660zM286 870q19 0 27 -16t0 -31.5
t-27 -15.5t-26.5 15.5t0 31.5t26.5 16zM425 870q19 0 26.5 -16t0 -31.5t-26.5 -15.5t-27 15.5t0 31.5t27 16z" />
    <glyph glyph-name="wdieresis" unicode="&#x1e85;" horiz-adv-x="701" 
d="M616 729q0 14 11 19.5t22.5 0t11.5 -19.5v-707q0 -15 -13.5 -20t-24.5 4l-273 228q-90 -76 -272 -228q-10 -9 -24 -4t-14 20v707q0 14 11 19.5t22.5 0t11.5 -19.5v-659q45 37 128.5 107.5t121.5 101.5q15 12 31 0q84 -70 250 -210v660zM291 858q19 0 27 -16t0 -31.5
t-27 -15.5t-26.5 15.5t0 31.5t26.5 16zM430 858q19 0 26.5 -16t0 -31.5t-26.5 -15.5t-27 15.5t0 31.5t27 16z" />
    <glyph glyph-name="Ygrave" unicode="&#x1ef2;" horiz-adv-x="633" 
d="M550 733q8 10 21.5 8.5t18.5 -10.5t-2 -21q-20 -27 -251 -332v-356q0 -14 -11 -19.5t-22 0t-11 19.5v352l-249 336q-8 11 -1 21.5t19 11t21 -9.5q39 -52 116 -156.5t115 -156.5q43 58 123.5 164.5t112.5 148.5zM326 809q12 -8 22.5 -1t10.5 19t-10 20q-58 38 -86 56
q-12 8 -22.5 1t-10.5 -19t10 -21q13 -8 86 -55z" />
    <glyph glyph-name="ygrave" unicode="&#x1ef3;" horiz-adv-x="633" 
d="M550 733q8 10 21.5 8.5t18.5 -10.5t-2 -21q-20 -27 -251 -332v-356q0 -14 -11 -19.5t-22 0t-11 19.5v352l-249 336q-8 11 -1 21.5t19 11t21 -9.5q39 -52 116 -156.5t115 -156.5q43 58 123.5 164.5t112.5 148.5zM320 771q12 -8 22.5 -1t10.5 19t-10 20q-58 38 -86 56
q-12 8 -22.5 1t-10.5 -19t10 -21q13 -8 86 -55z" />
    <glyph glyph-name="endash" unicode="&#x2013;" horiz-adv-x="443" 
d="M62 362q-14 0 -19.5 11t0 22.5t19.5 11.5h319q14 0 19.5 -11.5t0 -22.5t-19.5 -11h-319z" />
    <glyph glyph-name="emdash" unicode="&#x2014;" horiz-adv-x="723" 
d="M46 362q-17 0 -23.5 11t0 22.5t23.5 11.5h631q16 0 22.5 -11.5t0 -22.5t-22.5 -11h-631z" />
    <glyph glyph-name="quoteleft" unicode="&#x2018;" horiz-adv-x="169" 
d="M109 797q-20 -18 -20.5 -40t8 -37t27.5 -39q14 -17 -3.5 -31.5t-31.5 2.5q-43 56 -47 89q-9 48 38 90q10 9 22 4t14 -16.5t-7 -21.5z" />
    <glyph glyph-name="quoteright" unicode="&#x2019;" horiz-adv-x="173" 
d="M67 634q19 18 18.5 40t-10.5 37t-29 38q-15 16 1.5 31t31.5 -1q47 -55 52 -86q11 -48 -33 -92q-16 -15 -31.5 1.5t0.5 31.5z" />
    <glyph glyph-name="quotesinglbase" unicode="&#x201a;" horiz-adv-x="129" 
d="M-18 -76q38 1 49.5 27t12.5 72q0 14 11 19.5t22.5 0t11.5 -19.5q-2 -70 -20 -99q-24 -43 -87 -45q-14 0 -19.5 11t0 22.5t19.5 11.5z" />
    <glyph glyph-name="quotedblbase" unicode="&#x201e;" horiz-adv-x="600" 
d="M-9 -76q38 1 49.5 27t12.5 72q0 14 11.5 19.5t22.5 0t11 -19.5q-2 -70 -20 -99q-24 -43 -87 -45q-14 0 -19.5 11t0 22.5t19.5 11.5zM-9 -76q38 1 49.5 27t12.5 72q0 14 11.5 19.5t22.5 0t11 -19.5q-2 -70 -20 -99q-24 -43 -87 -45q-14 0 -19.5 11t0 22.5t19.5 11.5z" />
    <glyph glyph-name="dagger" unicode="&#x2020;" horiz-adv-x="600" 
d="M278 738q0 14 11 19.5t22.5 0t11.5 -19.5v-721q0 -14 -11.5 -19.5t-22.5 0t-11 19.5v721zM480 583q14 0 19.5 -11t0 -22.5t-19.5 -11.5q-322 0 -360 1q-14 0 -19.5 11.5t0 22.5t19.5 11q38 -1 360 -1z" />
    <glyph glyph-name="daggerdbl" unicode="&#x2021;" horiz-adv-x="600" 
d="M278 738q0 14 11 19.5t22.5 0t11.5 -19.5v-721q0 -14 -11.5 -19.5t-22.5 0t-11 19.5v721zM480 583q14 0 19.5 -11t0 -22.5t-19.5 -11.5q-322 0 -360 1q-14 0 -19.5 11.5t0 22.5t19.5 11q38 -1 360 -1zM480 181q14 0 19.5 -11t0 -22.5t-19.5 -11.5q-322 0 -360 1
q-14 0 -19.5 11t0 22.5t19.5 11.5q38 -1 360 -1z" />
    <glyph glyph-name="bullet" unicode="&#x2022;" horiz-adv-x="542" 
d="M272 299q-58 0 -90.5 39t-32.5 86t32.5 86t90.5 39q57 0 89 -39t32 -86t-32 -86t-89 -39z" />
    <glyph glyph-name="ellipsis" unicode="&#x2026;" horiz-adv-x="620" 
d="M309 -11q-20 0 -28 16.5t0 33.5t28 17t28.5 -16.5t0 -33.5t-28.5 -17zM548 -11q-20 0 -28 16.5t0 33.5t28 17t28.5 -16.5t0 -33.5t-28.5 -17zM72 -11q-20 0 -28 16.5t0 33.5t28 17t28.5 -16.5t0 -33.5t-28.5 -17z" />
    <glyph glyph-name="guilsinglleft" unicode="&#x2039;" horiz-adv-x="195" 
d="M43 393q10 13 35 48.5t35 49.5q8 11 21 9.5t18.5 -11t-1.5 -21.5q-40 -59 -62 -88q7 -13 31.5 -50t31.5 -50q7 -12 -0.5 -22t-19 -10t-20.5 11q-9 15 -35 55.5t-35 55.5q-6 13 1 23z" />
    <glyph glyph-name="guilsinglright" unicode="&#x203a;" horiz-adv-x="197" 
d="M154 359q-12 -16 -38 -53.5t-32 -45.5q-8 -11 -21 -9.5t-18.5 11t1.5 21.5q45 68 62 89q-7 11 -31.5 48t-32.5 51q-7 12 0.5 22t19 10t20.5 -11q50 -78 70 -110q6 -14 0 -23z" />
    <glyph glyph-name="euro" unicode="&#x20ac;" horiz-adv-x="629" 
d="M232 673q-56 -31 -77 -81t-21 -121v-10h140q14 0 19.5 -11.5t0 -22.5t-19.5 -11h-140v-63h140q14 0 19.5 -11.5t0 -22.5t-19.5 -11h-140v-55q0 -73 36.5 -126.5t105.5 -73.5q61 -17 122 0t102.5 64t43.5 112q0 14 11.5 19.5t22.5 0t11 -19.5q-2 -79 -51.5 -138
t-124 -80.5t-148.5 -0.5q-83 24 -129.5 89t-46.5 151v58h-27q-14 0 -19.5 11t0 22.5t19.5 11.5h26v63h-26q-14 0 -19.5 11t0 22.5t19.5 11.5h26q0 34 1 51q1 92 65.5 157.5t158.5 74.5q106 10 189 -56.5t87 -171.5q0 -14 -11 -19.5t-22.5 0t-11.5 19.5q-2 56 -33.5 99
t-77 63.5t-100.5 20t-101 -25.5z" />
    <glyph glyph-name="trademark" unicode="&#x2122;" horiz-adv-x="1330" 
d="M567 740q14 0 19.5 -11t0 -22.5t-19.5 -11.5h-226v-673q0 -14 -11 -19.5t-22 0t-11 19.5v673h-235q-14 0 -19.5 11.5t0 22.5t19.5 11h505zM1252 734q10 9 24 4t14 -20v-698q0 -14 -11 -19.5t-22.5 0.5t-11.5 19v651q-166 -140 -250 -209q-15 -12 -31 0q-184 153 -250 209
v-651q0 -14 -11 -19.5t-22.5 0.5t-11.5 19v699q0 15 13.5 20t24.5 -4q182 -152 272 -228q91 75 273 227z" />
    <glyph glyph-name="greaterequal" unicode="&#x2265;" horiz-adv-x="408" 
d="M333 357q11 -6 11 -20.5t-11 -21.5q-41 -21 -251 -128q-13 -7 -24.5 1t-11.5 20t12 20l210 108q-140 74 -210 110q-12 9 -12 21t11.5 20t24.5 1q42 -22 125.5 -65.5t125.5 -65.5zM343 169q15 0 21.5 -12t1.5 -24t-20 -12q-47 0 -141 -0.5t-140 -0.5q-15 0 -21.5 12
t-1.5 24t20 12q47 0 140.5 0.5t140.5 0.5z" />
    <glyph glyph-name="OE.001" horiz-adv-x="1160" 
d="M655 3q-9 0 -15.5 6.5t-6.5 15.5v695q0 9 6.5 15.5t15.5 6.5h444q21 0 21 -22t-21 -22h-421v-216h377q21 0 21 -22.5t-21 -22.5h-377v-389h421q21 0 21 -22.5t-21 -22.5h-444zM668 466q25 -134 -25.5 -261t-169.5 -181q-102 -42 -200 -9.5t-161 122.5q-66 96 -71 220
t52 226q55 99 157 144t205 6q154 -58 211 -259v-2l1 -2l1 -2v-2zM494 87q84 58 117.5 161.5t12.5 209.5q-25 90 -76.5 155.5t-133.5 85.5q-95 24 -178.5 -30t-122.5 -148q-39 -92 -24.5 -200t80.5 -184q63 -73 153.5 -88t171.5 38z" />
    <glyph glyph-name="idotaccent" horiz-adv-x="124" 
d="M60 617q17 0 23.5 -13.5t0 -27.5t-23.5 -14t-23.5 14t0.5 27.5t23 13.5zM84 21q0 -14 -11 -19.5t-22 0t-11 19.5v448q0 14 11 19.5t22 0t11 -19.5v-448z" />
    </font>
</defs>
</svg>
