<svg width="145" height="32" viewBox="0 0 145 32" fill="none" xmlns="http://www.w3.org/2000/svg">
<g clip-path="url(#clip0)">
<path d="M12.7433 18.2222H7.74285L3.4951 10.6667L7.74285 3.11111H16.234L20.4775 10.6667L14.4865 21.3333L20.4775 32H32.4681L38.459 21.3333L32.4681 10.6667H27.4677L25.7374 13.7778H30.7119L34.9596 21.3333L30.7119 28.8889H22.225L17.9816 21.3333L23.9769 10.6667L17.9816 0H5.9953L0 10.6667L5.9953 21.3333H10.9957L12.7433 18.2222Z" fill="url(#paint0_linear)"/>
</g>
<g clip-path="url(#clip1)">
<path d="M48.8405 26.0555V5.71777H51.5267V14.2511C51.8673 13.3905 52.4757 12.67 53.2569 12.2022C54.0967 11.716 55.0487 11.4718 56.0123 11.4956C56.7165 11.4661 57.4186 11.5934 58.0704 11.8688C58.7222 12.1442 59.3083 12.5612 59.7886 13.0911C60.7692 14.2329 61.2809 15.7209 61.216 17.2422V26.0555H58.5298V17.78C58.5758 16.7768 58.2548 15.7923 57.6301 15.02C57.3368 14.6746 56.9723 14.4008 56.5629 14.2186C56.1536 14.0363 55.7098 13.9503 55.264 13.9667C54.7561 13.9533 54.2516 14.056 53.7871 14.2673C53.3225 14.4787 52.9095 14.7935 52.5778 15.1889C51.8587 16.053 51.4834 17.164 51.5267 18.3V26.0555H48.8405Z" fill="#1A1A1A"/>
<path d="M75.2786 21.3889H77.9648C77.7378 22.8165 76.9714 24.0943 75.8323 24.9444C74.573 25.8669 73.0522 26.3356 71.5067 26.2778C70.5591 26.3131 69.6155 26.1358 68.7414 25.7582C67.8674 25.3805 67.0839 24.8116 66.4457 24.0911C65.1614 22.6501 64.4673 20.7557 64.5079 18.8022C64.4471 16.8922 65.0897 15.029 66.3073 13.5844C67.5098 12.1889 69.1709 11.4955 71.2385 11.4955C73.3062 11.4955 74.9239 12.1444 76.0919 13.4555C77.267 14.7714 77.8969 16.5059 77.8481 18.2911C77.8496 18.6519 77.8309 19.0125 77.7918 19.3711H67.1378C67.1922 20.6019 67.6741 21.7719 68.4961 22.6689C68.888 23.0829 69.3598 23.4083 69.8812 23.6241C70.4026 23.84 70.9622 23.9415 71.524 23.9222C73.6205 23.9341 74.872 23.0896 75.2786 21.3889ZM71.2385 13.7178C68.995 13.7178 67.6569 14.9296 67.2243 17.3533H75.1402C75.1273 16.8481 75.0152 16.3508 74.8106 15.8912C74.606 15.4316 74.313 15.0192 73.9494 14.6788C73.5858 14.3384 73.159 14.0771 72.6947 13.9104C72.2303 13.7437 71.738 13.6752 71.2472 13.7089L71.2385 13.7178Z" fill="#1A1A1A"/>
<path d="M92.0534 26.0555H89.2028L85.5477 20.6778L81.8666 26.0555H79.016L84.0813 18.5444L79.4312 11.7178H82.3943L85.5477 16.3844L88.6751 11.7178H91.6381L86.9881 18.5444L92.0534 26.0555Z" fill="#1A1A1A"/>
<path d="M94.9342 26.0555V5.71777H97.6204V26.0555H94.9342Z" fill="#1A1A1A"/>
<path d="M107.115 11.4956C108.906 11.4956 110.348 11.9845 111.441 12.9622C111.982 13.437 112.412 14.0314 112.698 14.701C112.984 15.3706 113.119 16.0981 113.093 16.8289V26.0733H110.407V23.7222C110.053 24.527 109.443 25.1839 108.677 25.5845C107.815 26.0613 106.848 26.3017 105.869 26.2822C104.619 26.3446 103.391 25.9174 102.435 25.0867C102.01 24.6971 101.674 24.2166 101.45 23.6791C101.226 23.1416 101.119 22.5601 101.137 21.9756C101.114 21.3524 101.236 20.7326 101.492 20.1671C101.747 19.6015 102.13 19.1063 102.608 18.7222C103.585 17.9133 104.905 17.5133 106.566 17.5133H109.473C110.1 17.5133 110.411 17.2289 110.411 16.66C110.428 16.2577 110.355 15.8568 110.2 15.4873C110.044 15.1178 109.809 14.7894 109.512 14.5267C108.81 13.9574 107.93 13.6728 107.037 13.7267C106.172 13.6999 105.325 13.9827 104.641 14.5267C104.342 14.745 104.093 15.0289 103.914 15.3578C103.734 15.6868 103.628 16.0526 103.603 16.4289H101.111C101.161 15.7401 101.352 15.0698 101.671 14.4624C101.991 13.8549 102.433 13.3239 102.967 12.9045C104.147 11.9509 105.615 11.4524 107.115 11.4956ZM106.393 24.0956C106.937 24.1276 107.481 24.0403 107.99 23.8395C108.498 23.6387 108.96 23.3291 109.343 22.9311C110.083 22.0614 110.465 20.9296 110.407 19.7756V19.4333H106.804C106.018 19.3899 105.243 19.6253 104.606 20.1C104.338 20.3115 104.123 20.5854 103.979 20.8992C103.835 21.213 103.765 21.5575 103.776 21.9045C103.768 22.2103 103.831 22.5137 103.959 22.7901C104.087 23.0665 104.276 23.3082 104.511 23.4956C105.05 23.9174 105.717 24.1285 106.393 24.0911V24.0956Z" fill="#1A1A1A"/>
<path d="M124.059 26.2822C123.155 26.2919 122.264 26.072 121.463 25.6422C120.724 25.2603 120.106 24.6698 119.681 23.94V26.0733H116.999V5.71777H119.681V13.8244C120.114 13.0976 120.738 12.5107 121.48 12.1311C122.291 11.7001 123.193 11.4818 124.106 11.4956C126.191 11.4956 127.825 12.183 129.007 13.5578C130.189 14.9326 130.779 16.7104 130.776 18.8911C130.776 21.0926 130.187 22.8704 129.007 24.2244C127.828 25.5785 126.178 26.2644 124.059 26.2822ZM120.646 22.5C121.049 22.9301 121.533 23.2723 122.068 23.506C122.603 23.7397 123.179 23.8601 123.76 23.8601C124.342 23.8601 124.917 23.7397 125.452 23.506C125.987 23.2723 126.471 22.9301 126.875 22.5C127.692 21.4888 128.112 20.1998 128.051 18.8867C128.112 17.5735 127.692 16.2845 126.875 15.2733C126.471 14.8432 125.987 14.501 125.452 14.2674C124.917 14.0337 124.342 13.9132 123.76 13.9132C123.179 13.9132 122.603 14.0337 122.068 14.2674C121.533 14.501 121.049 14.8432 120.646 15.2733C119.828 16.2845 119.408 17.5735 119.469 18.8867C119.408 20.1998 119.828 21.4888 120.646 22.5Z" fill="#1A1A1A"/>
<path d="M138.839 26.2823C137.398 26.3483 135.982 25.8745 134.855 24.949C134.352 24.5084 133.944 23.9644 133.658 23.352C133.372 22.7396 133.214 22.0724 133.194 21.3934H135.712C135.73 21.7602 135.824 22.119 135.985 22.4466C136.147 22.7742 136.373 23.0634 136.651 23.2956C137.279 23.7777 138.052 24.0198 138.835 23.9801C139.51 24.0092 140.175 23.8144 140.734 23.4245C140.966 23.2611 141.154 23.0403 141.282 22.7825C141.409 22.5247 141.472 22.2381 141.463 21.9491C141.454 21.6601 141.375 21.378 141.233 21.1286C141.09 20.8793 140.889 20.6708 140.647 20.5223C140.038 20.1699 139.366 19.9477 138.671 19.869C137.896 19.7667 137.118 19.6245 136.343 19.4245C135.578 19.2502 134.886 18.8317 134.367 18.229C133.78 17.4896 133.488 16.5495 133.549 15.5979C133.533 15.023 133.651 14.4526 133.891 13.9334C134.132 13.4142 134.489 12.9611 134.933 12.6112C135.963 11.8261 137.226 11.4319 138.506 11.4956C139.891 11.434 141.253 11.8727 142.356 12.7356C142.839 13.124 143.233 13.6167 143.511 14.1789C143.788 14.7411 143.942 15.359 143.961 15.989H141.443C141.411 15.6409 141.302 15.3051 141.125 15.007C140.947 14.7088 140.705 14.4564 140.418 14.269C139.849 13.8885 139.185 13.6862 138.506 13.6867C137.891 13.6593 137.283 13.8387 136.776 14.1979C136.568 14.3478 136.399 14.5477 136.284 14.7801C136.169 15.0125 136.11 15.2703 136.114 15.5312C136.098 15.8207 136.167 16.1085 136.312 16.3573C136.457 16.6061 136.671 16.8044 136.927 16.9267C137.554 17.2333 138.23 17.4201 138.921 17.4779C139.713 17.568 140.499 17.706 141.275 17.8912C142.058 18.0821 142.758 18.5318 143.269 19.1712C143.858 19.9809 144.148 20.9798 144.086 21.989C144.104 22.5864 143.983 23.1796 143.735 23.7202C143.487 24.2608 143.118 24.7336 142.659 25.1001C141.698 25.8912 140.425 26.2853 138.839 26.2823Z" fill="#1A1A1A"/>
</g>
<defs>
<linearGradient id="paint0_linear" x1="-4.85614e-07" y1="16.0724" x2="38.459" y2="16.0724" gradientUnits="userSpaceOnUse">
<stop stop-color="#33C2FF"/>
<stop offset="1" stop-color="#7B69EC"/>
</linearGradient>
<clipPath id="clip0">
<rect width="38.459" height="32" fill="white"/>
</clipPath>
<clipPath id="clip1">
<rect width="95.2327" height="20.5644" fill="white" transform="translate(48.8405 5.71777)"/>
</clipPath>
</defs>
</svg>
